<?xml version="1.0" encoding="UTF-8"?>
<svg xmlns="http://www.w3.org/2000/svg" xmlns:xlink="http://www.w3.org/1999/xlink" xmlns:serif="http://www.serif.com/" version="1.1" viewBox="0 0 430 461.6">
  <defs>
    <style>
      .cls-1, .cls-2, .cls-3, .cls-4, .cls-5, .cls-6, .cls-7 {
        fill: none;
      }

      .cls-2, .cls-8, .cls-3, .cls-4, .cls-5, .cls-6, .cls-9, .cls-10, .cls-7, .cls-11 {
        stroke-linecap: round;
        stroke-linejoin: round;
      }

      .cls-2, .cls-8, .cls-5, .cls-9, .cls-10, .cls-11 {
        stroke-width: 6.2px;
      }

      .cls-2, .cls-8, .cls-9, .cls-10, .cls-11 {
        stroke: #000;
      }

      .cls-12, .cls-8 {
        fill: #008b3c;
      }

      .cls-12, .cls-8, .cls-13, .cls-14, .cls-15, .cls-16, .cls-17, .cls-18, .cls-19, .cls-20, .cls-9, .cls-10, .cls-21, .cls-11 {
        fill-rule: evenodd;
      }

      .cls-13, .cls-11 {
        fill: #fff;
      }

      .cls-3 {
        stroke: #008742;
      }

      .cls-3, .cls-4, .cls-6, .cls-7 {
        stroke-width: 12.4px;
      }

      .cls-14 {
        fill: #ffd504;
      }

      .cls-15, .cls-22 {
        fill: #b7f8ff;
      }

      .cls-16 {
        fill: #ededed;
      }

      .cls-17 {
        fill: #61e0ee;
      }

      .cls-18 {
        fill: #c3c3bd;
        fill-opacity: .7;
      }

      .cls-4 {
        stroke: #ffd504;
      }

      .cls-5 {
        stroke: #61e0ee;
      }

      .cls-23 {
        clip-path: url(#clippath-1);
      }

      .cls-24 {
        clip-path: url(#clippath-3);
      }

      .cls-25 {
        clip-path: url(#clippath-2);
      }

      .cls-6 {
        stroke: #ee1a30;
      }

      .cls-20 {
        fill: #4fcbe0;
      }

      .cls-9 {
        fill: #d6c295;
      }

      .cls-10 {
        fill: #ffdbf8;
      }

      .cls-21 {
        fill: #ee1a30;
      }

      .cls-7 {
        stroke: #5c2e00;
      }

      .cls-26 {
        clip-path: url(#clippath);
      }
    </style>
    <clipPath id="clippath">
      <path class="cls-1" d="M169.4,393.8s-15.6-30.6-12.6-56.9c9.2-82.2-15-98.3-5.5-148.5,3.3-17.4,9.5-37.3,20.1-51.7,23.2-31.7,67.9-48.1,106.8-40.7,15.6,3,29.6,9.7,43.5,17.1,48.4,25.7,58.4,79.9,52.1,125.7-2.8,20.2-20.2,51.8-17.6,72.1,5.3,42.3,3.8,65.2-9.4,92.5-11.3,23.3-55.1,40.8-103,35.8-8.2-.8-57-9.4-74.4-45.4h0Z"/>
    </clipPath>
    <clipPath id="clippath-1">
      <path class="cls-1" d="M181.2,125.7c19.2-2.7,37,10.6,39.7,29.8,2.7,19.2-10.6,37-29.8,39.7-19.2,2.7-37-10.6-39.7-29.8-2.7-19.2,10.6-37,29.8-39.7h0Z"/>
    </clipPath>
    <clipPath id="clippath-2">
      <path class="cls-1" d="M315.3,135.7c-19.2-2.7-37,10.6-39.7,29.8s10.6,37,29.8,39.7c19.2,2.7,37-10.6,39.7-29.8,2.7-19.2-10.6-37-29.8-39.7Z"/>
    </clipPath>
    <clipPath id="clippath-3">
      <path class="cls-1" d="M172.5,126.8s-26.1-5.6-27.5-41.5c-1.4-35.9,40.5-75.5,97.9-76.9,77.4-1.9,136.6,20,149.6,90.9,9.8,53.5-21,64.3-29.4,64.3s-21.9-29.8-59.2-40.6c-37.3-10.7-78.8-15.4-131.5,3.7Z"/>
    </clipPath>
  </defs>
  <!-- Generator: Adobe Illustrator 28.7.1, SVG Export Plug-In . SVG Version: 1.2.0 Build 142)  -->
  <g>
    <g id="Layer_1">
      <g>
        <path class="cls-7" d="M77.9,206.8s39.2,6.5,63-30.2,34.4-34.9,43.5-36.8"/>
        <path class="cls-7" d="M165.7,98.1s3.3,31.2-7.5,55.5c-10.7,24.2-26.6,49.4-26.1,75.5.5,26.1,2.8,34,2.3,44.7"/>
        <path class="cls-7" d="M165.2,141.9s-38.2,10.7-44.3,54.1-16.3,46.1-23.8,51.7"/>
        <g>
          <path class="cls-9" d="M120.1,307s29.4,9.2,43.6-2.7c14.2-11.9,7-26.3-6.5-21.9-13.5,4.3-26.5,7.3-36.4,1.5-9.8-5.8-19.4,17.6-.8,23.2h0Z"/>
          <path class="cls-5" d="M231.8,82.8s14.4-15,19.8,21.6"/>
          <path class="cls-5" d="M281.6,79.2s-13.8-14.4-18.6,23.4"/>
          <path class="cls-5" d="M244,67s16.2-10.3,13.2,31.5"/>
          <path class="cls-9" d="M179.8,434.9s1.7-30.7,17.8-39.9c16.2-9.1,27.1,2.6,18.3,13.8-8.8,11.1-16.1,22.3-14.1,33.5,2,11.2-23.2,12-22-7.4h0Z"/>
          <path class="cls-9" d="M333.2,447.4s16.3-26.1,8.3-42.9c-8-16.8-23.7-13.4-22.9.8.8,14.2.4,27.5-7.7,35.6-8,8,12.1,23.1,22.2,6.6h0Z"/>
          <path class="cls-17" d="M357.8,175.3c.6-3.4,7.5-8.6,10.4-9.8,35.1-14.3,22.8,26,2.4,24.4"/>
          <path class="cls-19" d="M381.1,158.3h.3s.2,0,.2,0h.2s.2,0,.2,0h.2s.2,0,.2,0h.2s.1,0,.1,0h.2s.1,0,.1,0h.1s.1,0,.1,0h.1s.1,0,.1,0h.1s.1,0,.1,0h.1s.1,0,.1,0h.1s.1,0,.1,0h.1s.1,0,.1,0h.1s.1,0,.1,0h.1s.1,0,.1,0h.1s.1,0,.1,0h.1s.1,0,.1,0h.1s.1,0,.1,0h.1s.1,0,.1,0h.1s.1,0,.1,0h.1s.1,0,.1,0h.1s.1,0,.1,0h.1s.1,0,.1,0h.1c0,0,.1.1.1.1h.1c0,0,.1.1.1.1h.1c0,0,.1.1.1.1h.1c0,0,.1.1.1.1h.1c0,0,.1.1.1.1h.1c0,0,.1.1.1.1h.1c0,0,.1.1.1.1h.1c0,0,.1.1.1.1h.1c0,0,.1.1.1.1h.1c0,0,.1.2.1.2h.1c0,0,.1.2.1.2h.1c0,0,.1.2.1.2h.1c0,0,.1.2.1.2h.1c0,0,0,.2,0,.2h.1c0,0,0,.2,0,.2h0c0,0,0,.2,0,.2h0c0,0,0,.2,0,.2h0c0,0,0,.2,0,.2h0c0,0,0,.2,0,.2h0c0,0,0,.2,0,.2h0c0,0,0,.2,0,.2h0c0,0,0,.2,0,.2h0c0,.1,0,.2,0,.2h0c0,.1,0,.2,0,.2h0c0,.1,0,.2,0,.2h0c0,.1,0,.2,0,.2h0c0,.1,0,.2,0,.2h0c0,.1,0,.2,0,.2h0c0,.1,0,.2,0,.2h0c0,.1,0,.2,0,.2h0c0,.1,0,.2,0,.2h0c0,.1,0,.2,0,.2h0c0,.1,0,.2,0,.2h0c0,.1,0,.2,0,.2h0c0,.1,0,.2,0,.2h0c0,.1,0,.2,0,.2h0c0,.1,0,.2,0,.2h0c0,.1,0,.2,0,.2h0c0,.1,0,.2,0,.2h0c0,.1,0,.2,0,.2h0c0,.1,0,.2,0,.2h0c0,.1,0,.2,0,.2h0c0,.1,0,.2,0,.2h0c0,.1,0,.2,0,.2h0c0,.1,0,.2,0,.2h0c0,.1,0,.2,0,.2h0c0,.1,0,.2,0,.2h0c0,.1,0,.4,0,.4v.2s0,.2,0,.2v.2s0,.2,0,.2v.2s0,.2,0,.2v.2s0,.2,0,.2v.2s0,.2,0,.2v.2s0,.2,0,.2v.2s0,.2,0,.2v.2s0,.2,0,.2v.2s0,.2,0,.2v.2s0,.2,0,.2v.2s0,.2,0,.2v.2s0,.2,0,.2v.2c0,0-.1.2-.1.2v.2c0,0-.1.2-.1.2v.2c0,0-.1.2-.1.2v.2c0,0-.1.2-.1.2v.2c0,0-.2.2-.2.2v.2c0,0-.2.2-.2.2v.2c0,0-.2.2-.2.2v.2c0,0-.2.2-.2.2v.2c0,0-.2.2-.2.2v.2c0,0-.2.2-.2.2v.2c-.1,0-.2.2-.2.2v.2c-.1,0-.2.2-.2.2v.2c-.1,0-.2.2-.2.2v.2c-.1,0-.2.2-.2.2v.2c-.1,0-.3.2-.3.2v.2c-.1,0-.3.2-.3.2v.2c-.1,0-.3.2-.3.2v.2c-.1,0-.3.2-.3.2v.2c-.1,0-.3.2-.3.2l-.2.2v.2c-.1,0-.3.2-.3.2l-.2.2-.2.2-.2.2-.2.2-.2.2-.2.2-.2.2-.2.2-.2.2-.2.2-.2.2-.2.2-.2.2-.2.2-.2.2-.2.2-.2.2-.2.2-.2.2-.2.2-.2.2-.2.2-.2.2-.2.2-.2.2-.2.2-.2.2-.2.2-.2.2-.2.2-.2.2-.2.2-.2.2-.2.2h-.2c0,.1-.2.3-.2.3h-.2c0,.1-.2.3-.2.3h-.2c0,.1-.2.3-.2.3h-.2c0,.1-.2.3-.2.3h-.2c0,.1-.2.3-.2.3h-.2c0,.1-.3.2-.3.2h-.3c0,.1-.3.2-.3.2h-.3c0,.1-.3.2-.3.2h-.1c0,0-.1.1-.1.1h-.1c0,0-.1.1-.1.1h-.1s-.1,0-.1,0h-.1s-.1,0-.1,0h-.1s-.1,0-.1,0h-.1s-.1,0-.1,0h-.1s-.1,0-.1,0h-.1s-.1,0-.1,0h-.1s-.1,0-.1,0h-.1s-.1,0-.1,0h-.1s-.1,0-.1,0h-.1s-.1,0-.1,0h-.1s-.1,0-.1,0h-.1s-.1,0-.1,0h-.1s-.1,0-.1,0h-.1s-.1,0-.1,0h-.1s-.1,0-.1,0h-.1s-.1,0-.1,0h-.1s-.1,0-.1,0h-.1s-.1,0-.1,0h-.1s-.1,0-.1,0h-.1s-.1,0-.1,0h-.1s-.1,0-.1,0h-.1s-.1,0-.1,0h-.1s-.1,0-.1,0h-.1s-.1,0-.1,0h-.8s-.1,0-.1,0h-.2s-.1,0-.1,0h-.2s-.1,0-.1,0h-.2s-.1,0-.1,0h-.2s-.2,0-.2,0h-.2s-.2-.1-.2-.1h-.2c0,0-.2-.2-.2-.2h-.2c0,0-.2-.2-.2-.2h-.2c0-.1-.2-.3-.2-.3h-.2c0-.1-.2-.3-.2-.3l-.2-.2-.2-.2v-.2c-.1,0-.3-.2-.3-.2v-.2c-.1,0-.2-.2-.2-.2v-.2c-.1,0-.2-.2-.2-.2v-.2c0,0-.1-.2-.1-.2v-.2c0,0,0-.2,0-.2v-.2s0-.2,0-.2v-.2s0-.2,0-.2v-.2s0-.2,0-.2v-.2s.1-.2.1-.2v-.2c0,0,.2-.2.2-.2v-.2c0,0,.2-.2.2-.2v-.2c.1,0,.3-.2.3-.2v-.2c.1,0,.3-.2.3-.2l.2-.2.2-.2h.2c0-.1.2-.3.2-.3h.2c0-.1.2-.2.2-.2h.2c0-.1.2-.2.2-.2h.2c0,0,.2-.1.2-.1h.2c0,0,.2,0,.2,0h.2s.2,0,.2,0h.5s.1,0,.1,0h0s0,0,0,0h0s0,0,0,0h0s0,0,0,0h.2s0,0,0,0h.2s0,0,0,0h0s0,0,0,0h0s0,0,0,0h0s0,0,0,0h0s0,0,0,0h0s0,0,0,0h0s0,0,0,0h0s0,0,0,0h0s0,0,0,0h0s0,0,0,0h0s0,0,0,0h0s0,0,0,0h0s0,0,0,0h0s0,0,0,0h0s0,0,0,0h0s0,0,0,0h0s0,0,0,0h0s0,0,0,0h0s0,0,0,0h0s0,0,0,0h0s0,0,0,0h0s0,0,0,0h0s0,0,0,0h0s0,0,0,0h0s0,0,0,0h0s0,0,0,0h0s.2,0,.2,0h.2c0,0,.2-.1.2-.1h.2c0,0,.2-.1.2-.1h.2c0,0,.2-.2.2-.2h.2c0,0,.2-.2.2-.2h.2c0,0,.2-.2.2-.2h.1c0,0,.2-.2.2-.2h.1c0,0,.1-.2.1-.2h.1c0,0,.1-.2.1-.2h.1c0,0,.1-.2.1-.2h.1c0-.1.1-.2.1-.2h.1c0-.1.1-.2.1-.2h.1c0-.1.1-.2.1-.2h.1c0-.1.1-.2.1-.2h.1c0-.1.1-.2.1-.2h.1c0-.1.1-.2.1-.2h.1c0-.1.1-.3.1-.3h.1c0-.1.1-.3.1-.3h.1c0-.1.1-.3.1-.3h.1c0-.1.1-.3.1-.3h.1c0-.1.1-.3.1-.3h.1c0-.1.1-.3.1-.3h.1c0-.1.1-.3.1-.3h.1c0-.1.1-.3.1-.3h.1c0-.1.1-.3.1-.3h.1c0-.1.1-.3.1-.3h.1c0-.1.1-.3.1-.3h.1c0-.1,0-.3,0-.3h0c0-.1,0-.3,0-.3v-.2c0,0,.2-.2.2-.2v-.2c0,0,.2-.2.2-.2v-.2c0,0,.2-.2.2-.2v-.2c0,0,.2-.2.2-.2v-.2c0,0,.2-.2.2-.2v-.2c0,0,.2-.2.2-.2v-.2c0,0,.1-.2.1-.2v-.2c0,0,.1-.2.1-.2v-.2c0,0,.1-.2.1-.2v-.2c0,0,.1-.2.1-.2v-.2c0,0,.1-.2.1-.2v-.2c0,0,.1-.1.1-.1v-.2s0-.2,0-.2h0c0-.1,0-.3,0-.3h0c0-.1,0-.3,0-.3h0c0-.1,0-.3,0-.3h0c0-.1,0-.3,0-.3h0c0-.1,0-.3,0-.3h0c0-.1,0-.3,0-.3h0c0-.1,0-.3,0-.3h0c0-.1,0-.3,0-.3h0c0-.1,0-.3,0-.3h0c0-.1,0-.3,0-.3h0c0-.1,0-.3,0-.3h0v-.2h0c0-.1,0-.2,0-.2h0c0-.1,0-.2,0-.2h0c0-.1,0-.2,0-.2h0c0-.1,0-.2,0-.2h0c0-.1,0-.2,0-.2h0s0,0,0,0h0s0,0,0,0h0s0,0,0,0h0s0,0,0,0h0s0,0,0,0h0s0,0,0,0h0s0,0,0,0h0s0,0,0,0h0s0,0,0,0h0s0,0,0,0h0s0,0,0,0h0s0,0,0,0h0s0,0,0,0h0s0,0,0,0h0s0,0,0,0h0s0,0,0,0h0s0,0,0,0h0s0,0,0,0h0s0,0,0,0h0s0,0,0,0h0s0,0,0,0h0s0,0,0,0h0s0,0,0,0h0s0,0,0,0h0s0,0,0,0h0s0,0,0,0h0s0,0,0,0h0s0,0,0,0h0s0,0,0,0h0s0,0,0,0h0s0,0,0,0h0s0,0,0,0h0s0,0,0,0h0s0,0,0,0h0s0,0,0,0h0s0,0,0,0h0s0,0,0,0h0s0,0,0,0h0s0,0,0,0h0s0,0,0,0h0s0,0,0,0h0s0,0,0,0h0s0,0,0,0h0s0,0,0,0h0s0,0,0,0h0s0,0,0,0h0s0,0,0,0h0s0,0,0,0h0s0,0,0,0h0s0,0,0,0h0s0,0,0,0h0s0,0,0,0h0s0,0,0,0h0s0,0,0,0h0s0,0,0,0h0s0,0,0,0h0s0,0,0,0h0s0,0,0,0h0s0,0,0,0h0s0,0,0,0h0s0,0,0,0h0s0,0,0,0h0s0,0,0,0h0s0,0,0,0h0s0,0,0,0h0s0,0,0,0h0s0,0,0,0h0s0,0,0,0h-.5s-.1,0-.1,0h-.1s-.1,0-.1,0h-.1s-.1,0-.1,0h-.1s-.1,0-.1,0h-.1s-.1,0-.1,0h-.1s-.1,0-.1,0h-.1s-.1,0-.1,0h-.1s-.1,0-.1,0h-.1s-.1,0-.1,0h-.1s-.1,0-.1,0h-.1s-.1,0-.1,0h-.1s-.1,0-.1,0h-.1s-.1,0-.1,0h-.1s-.1,0-.1,0h-.1s-.1,0-.1,0h-.1s-.1,0-.1,0h-.1s-.1,0-.1,0h-.1s-.1,0-.1,0h-.1s-.1,0-.1,0h-.1s-.2,0-.2,0h-.1s-.2,0-.2,0h-.2s-.2,0-.2,0h-.2s-.2,0-.2,0h-.2s-.2,0-.2,0h-.2s-.2,0-.2,0h-.2s-.2,0-.2,0h-.2c0,0-.2.1-.2.1h-.2c0,0-.2.1-.2.1h-.2c0,0-.2.1-.2.1h-.2c0,0-.2.1-.2.1h-.2c0,0-.2.1-.2.1h-.2c0,0-.2.1-.2.1h-.2c0,0-.2.1-.2.1h-.2c0,0-.2.1-.2.1h-.2c0,0-.2.1-.2.1h-.2c0,0-.2.1-.2.1h-.2c0,0-.2.2-.2.2h-.2c0,0,0,0,0,0h0s0,0,0,0h0s0,0,0,0h-.1c0,0-.1.1-.1.1h-.1c0,0-.1.1-.1.1h-.1c0,0-.1.2-.1.2h-.1c0,0-.2.2-.2.2h-.2c0,0-.2.2-.2.2h-.2c0,.1-.2.2-.2.2h-.2c0,.1-.2.2-.2.2h-.2c0,.1-.2.2-.2.2h-.2c0,.1-.2.3-.2.3h-.2c0,.1-.2.3-.2.3h-.2c0,.1-.2.3-.2.3h-.2c0,.1-.2.3-.2.3h-.2c0,.1-.2.3-.2.3h-.2c0,.1-.2.3-.2.3l-.2.2-.2.2-.2.2-.2.2-.2.2-.2.2-.2.2-.2.2h0c0,0,0,.1,0,.1h0c0,0,0,.1,0,.1h0c0,0,0,.1,0,.1h0c0,0,0,.1,0,.1h0c0,0,0,.1,0,.1h0c0,0,0,.1,0,.1h0c0,0,0,.1,0,.1h0c0,0,0,.1,0,.1h0c0,0,0,.1,0,.1h0c0,0,0,.1,0,.1h0c0,0,0,.1,0,.1h0c0,0,0,.1,0,.1h0s0,0,0,0h0s0,0,0,0h0s0,0,0,0h0s0,0,0,0h0s0,0,0,0h0s0,0,0,0h0s0,0,0,0h0s0,.2,0,.2v.2c0,0-.1.2-.1.2v.2c0,0-.2.2-.2.2v.2c-.1,0-.2.2-.2.2v.2c-.1,0-.3.2-.3.2l-.2.2-.2.2-.2.2h-.2c0,.1-.2.3-.2.3h-.2c0,.1-.2.2-.2.2h-.2c0,.1-.2.2-.2.2h-.2c0,0-.2.1-.2.1h-.2c0,0-.2,0-.2,0h-.2s-.2,0-.2,0h-.2s-.2,0-.2,0h-.2s-.2,0-.2,0h-.2s-.2-.1-.2-.1h-.2c0,0-.2-.2-.2-.2h-.2c0,0-.2-.2-.2-.2h-.2c0-.1-.2-.3-.2-.3h-.2c0-.1-.2-.3-.2-.3l-.2-.2-.2-.2v-.2c-.1,0-.3-.2-.3-.2v-.2c-.1,0-.2-.2-.2-.2v-.2c-.1,0-.2-.2-.2-.2v-.2c0,0-.1-.2-.1-.2v-.2c0,0,0-.2,0-.2v-.2s0-.2,0-.2v-.2s0-.2,0-.2v-.2s0-.2,0-.2h0c0-.1,0-.3,0-.3v-.2s0-.2,0-.2v-.2s.1-.2.1-.2v-.2c0,0,.1-.2.1-.2v-.2c0,0,.1-.2.1-.2v-.2c0,0,.1-.2.1-.2h0c0-.1,0-.3,0-.3h0c0-.1,0-.3,0-.3h0c0-.1,0-.3,0-.3h0c0-.1,0-.3,0-.3h0c0-.1,0-.3,0-.3h0c0-.1,0-.3,0-.3h0c0-.1,0-.3,0-.3h0c0-.1,0-.2,0-.2h0c0-.1,0-.2,0-.2h0c0-.1,0-.2,0-.2h0c0-.1,0-.2,0-.2h0c0-.1,0-.2,0-.2h0c0-.1,0-.2,0-.2h.1c0-.1,0-.2,0-.2h.1c0-.1.1-.2.1-.2h.1c0-.1.1-.2.1-.2h.1c0-.1.1-.2.1-.2h.1c0-.1.1-.2.1-.2l.2-.2.2-.2.2-.2.2-.2.2-.2.2-.2.2-.2.2-.2.2-.2.2-.2.2-.2.2-.2.2-.2.2-.2.2-.2.2-.2.2-.2.2-.2.2-.2.2-.2.2-.2.2-.2.2-.2.2-.2.2-.2h.2c0-.1.2-.3.2-.3h.2c0-.1.2-.3.2-.3h.2c0-.1.2-.3.2-.3h.2c0-.1.2-.2.2-.2h.2c0-.1.2-.2.2-.2h.2c0-.1.2-.2.2-.2h.2c0,0,.2-.2.2-.2h.1s.1,0,.1,0h.2c0,0,.2-.2.2-.2h.2c0,0,.2-.2.2-.2h.2c0,0,.2-.2.2-.2h.2c0,0,.2-.2.2-.2h.2c0,0,.2-.2.2-.2h.2c0,0,.2-.1.2-.1h.2c0,0,.2-.1.2-.1h.2c0,0,.2-.1.2-.1h.2c0,0,.2-.1.2-.1h.2c0,0,.2-.1.2-.1h.2c0,0,.2-.1.2-.1h.2c0,0,.2-.1.2-.1h.2c0,0,.2-.1.2-.1h.2c0,0,.2-.1.2-.1h.2c0,0,.2-.1.2-.1h.2s.2-.1.2-.1h.2s.2,0,.2,0h.2s.2,0,.2,0h.2s.2,0,.2,0h.2s.2,0,.2,0h.2s.2,0,.2,0h.2s.2,0,.2,0h.2s.2,0,.2,0h.2s.2,0,.2,0h.2s.2,0,.2,0h.2s.2,0,.2,0h.2s.2,0,.2,0h.2s.2,0,.2,0h.2s.2,0,.2,0h.2s.2,0,.2,0h.2s.2,0,.2,0h.2s.2,0,.2,0h.2s.2,0,.2,0h.2s.2,0,.2,0h.2s.2,0,.2,0h.2s.2,0,.2,0h.2s.2,0,.2,0h.2s.2,0,.2,0h.3,0Z"/>
          <path class="cls-17" d="M167.4,148.9c-3.2,1.2-6.7-.8-9.2-2.7-30-23.3,11-32.6,19.8-14.1"/>
          <path class="cls-19" d="M160.7,118.1h.3s.3,0,.3,0h.3s.3,0,.3,0h.3s.3,0,.3,0h.3s.3,0,.3,0h.3s.3,0,.3,0h.3s.3,0,.3,0h.3s.3,0,.3,0h.3s.3,0,.3,0h.3s.3,0,.3,0h.3s.3,0,.3,0h.3c0,0,.3.1.3.1h.3c0,0,.3.1.3.1h.3c0,0,.3.1.3.1h.3c0,0,.3.1.3.1h.3c0,0,.3.2.3.2h.3c0,0,.3.2.3.2h.3c0,0,.3.2.3.2h.3c0,0,.3.2.3.2h.3c0,0,.3.2.3.2h.2c0,.1.3.2.3.2h.2c0,.1.2.2.2.2h.2c0,.1.2.2.2.2h.2c0,.1.2.2.2.2h.2c0,.1.2.3.2.3h.2c0,.1.2.3.2.3h.2c0,.1.2.3.2.3h.2c0,.1.2.3.2.3l.2.2.2.2.2.2.2.2.2.2.2.2.2.2h.1c0,0,.1.2.1.2h.1c0,0,.1.2.1.2h.1c0,0,.1.2.1.2h.1c0,0,.1.2.1.2h.1c0,0,.1.2.1.2h.1c0,0,.1.2.1.2h.1c0,0,.1.2.1.2h.1c0,0,.1.2.1.2h0c0,0,.1.2.1.2h.1c0,.1,0,.2,0,.2h0c0,.1,0,.2,0,.2h0c0,.1,0,.2,0,.2h0c0,.1,0,.2,0,.2h0c0,.1,0,.2,0,.2h0c0,.1,0,.2,0,.2h0c0,.1,0,.2,0,.2h0c0,.1,0,.2,0,.2h0c0,.1,0,.2,0,.2h0c0,.1,0,.2,0,.2h0c0,.1,0,.2,0,.2h0c0,.1,0,.2,0,.2h0c0,.1,0,.2,0,.2h0c0,.1,0,.2,0,.2h0c0,.1,0,.2,0,.2h0c0,.1,0,.2,0,.2h0c0,.1,0,.3,0,.3h0c0,.1,0,.3,0,.3h0c0,.1,0,.3,0,.3h0c0,.1,0,.3,0,.3h0c0,.1,0,.3,0,.3h0c0,.1,0,.3,0,.3h0c0,.1,0,.3,0,.3v.2c0,0,.2.2.2.2v.2c0,0,.1.2.1.2v.2s0,.2,0,.2v.2s0,.2,0,.2v.2s0,.2,0,.2v.2s0,.2,0,.2v.2s-.1.2-.1.2v.2c0,0-.2.2-.2.2v.2c0,0-.2.2-.2.2v.2c-.1,0-.2.2-.2.2v.2c-.1,0-.3.2-.3.2l-.2.2h-.2c0,.1-.2.3-.2.3h-.2c0,.1-.2.3-.2.3h-.2c0,.1-.2.2-.2.2h-.2c0,0-.2.2-.2.2h-.2c0,0-.2.1-.2.1h-.2s-.2,0-.2,0h-.2s-.2,0-.2,0h-.2s-.2,0-.2,0h-.2s-.2,0-.2,0h-.2s-.2-.1-.2-.1h-.2c0,0-.2-.2-.2-.2h-.2c0,0-.2-.2-.2-.2h-.2c0-.1-.2-.2-.2-.2h-.2c0-.1-.2-.3-.2-.3l-.2-.2-.2-.2v-.2c-.1,0-.3-.2-.3-.2v-.2c-.1,0-.2-.2-.2-.2v-.2c0,0-.1,0-.1,0h0c0,0,0-.2,0-.2h0c0,0,0-.2,0-.2h0c0,0,0-.2,0-.2h0c0,0,0-.2,0-.2h0c0,0,0-.1,0-.1h0c0,0,0-.1,0-.1h0c0,0,0-.1,0-.1h0c0,0,0-.1,0-.1h0c0,0,0-.1,0-.1h0c0,0,0-.1,0-.1h0c0,0,0-.1,0-.1h0c0,0,0-.1,0-.1h0c0,0,0-.1,0-.1h0c0,0,0-.1,0-.1h0c0,0,0-.1,0-.1h0c0,0,0-.1,0-.1h0c0,0,0-.1,0-.1h0c0,0,0-.1,0-.1h0c0,0,0-.1,0-.1h0c0,0,0-.1,0-.1h0c0,0,0-.1,0-.1h0c0,0,0-.1,0-.1h0c0,0,0-.1,0-.1h0c0,0,0-.1,0-.1h0c0,0,0-.1,0-.1h0c0,0,0-.1,0-.1h0c0,0,0-.1,0-.1h0c0,0,0-.1,0-.1h0c0,0,0-.1,0-.1h0c0,0,0-.1,0-.1h0c0,0,0-.1,0-.1h0s-.1-.2-.1-.2h-.1c0-.1-.1-.2-.1-.2h-.1c0,0-.1-.2-.1-.2h-.1c0,0-.1-.2-.1-.2h-.1c0,0-.1-.2-.1-.2h-.2c0,0-.2-.2-.2-.2h-.2c0,0-.2-.2-.2-.2h-.2c0,0-.2-.2-.2-.2h-.2c0,0-.2-.2-.2-.2h-.2c0,0-.2-.2-.2-.2h-.2c0,0-.2-.1-.2-.1h-.2c0,0-.2-.1-.2-.1h-.2c0,0-.2-.1-.2-.1h-.2c0,0-.2-.1-.2-.1h-.2c0,0-.2-.1-.2-.1h-.2c0,0-.2-.1-.2-.1h-.2c0,0-.2-.1-.2-.1h-.2s-.2,0-.2,0h-.2s-.2,0-.2,0h-.2s-.2,0-.2,0h-.2s-.2,0-.2,0h-.2s-.2,0-.2,0h-.2s-.2,0-.2,0h-.2s-.2,0-.2,0h-.2s-.2,0-.2,0h-.2s-.2,0-.2,0h-.2s-.2,0-.2,0h-.2s-.2,0-.2,0h-.2s-.2,0-.2,0h-.2s-.2,0-.2,0h-.4s-.2,0-.2,0h-.4s-.2,0-.2,0h-.2s-.2,0-.2,0h-.2s-.2,0-.2,0h-.2s-.2,0-.2,0h-.2s-.2,0-.2,0h-.2s-.2,0-.2,0h-.2s-.2,0-.2,0h-.2s-.2,0-.2,0h-.2s-.2,0-.2,0h-.2s-.2,0-.2,0h-.2s-.2,0-.2,0h-.1s-.1,0-.1,0h-.1s-.1,0-.1,0h-.1s-.1,0-.1,0h-.1s-.1,0-.1,0h-.1s-.1,0-.1,0h-.1s-.1,0-.1,0h-.1s-.1.1-.1.1h-.1c0,0-.1.1-.1.1h-.1c0,0-.1.1-.1.1h-.1c0,0-.1.1-.1.1h-.1c0,0-.1.1-.1.1h-.1c0,0,0,.1,0,.1h0c0,0,0,.1,0,.1h0c0,0,0,.1,0,.1h0c0,0,0,.1,0,.1h0c0,0,0,0,0,0h0s0,0,0,0h0s0,0,0,0h0s0,0,0,0h0s0,0,0,0h0s0,0,0,0h0s0,0,0,0h0s0,0,0,0h0s0,0,0,0h0s0,0,0,0h0s0,0,0,0h0s0,0,0,0h0s0,0,0,0h0s0,0,0,0h0s0,0,0,0h0s0,0,0,0h0s0,0,0,0h0s0,0,0,0h0s0,0,0,0h0s0,0,0,0h0s0,0,0,0h0s0,0,0,0h0s0,0,0,0h0s0,0,0,0h0s0,0,0,0h0s0,0,0,0h0s0,0,0,0h0s0,0,0,0h0s0,0,0,0h0s0,0,0,0h0s0,0,0,0h0s0,0,0,0h0s0,0,0,0h0s0,0,0,0h0s0,0,0,0h0s0,0,0,0h0s0,0,0,0h0c0,0,0,.1,0,.1h0c0,0,0,.1,0,.1h0c0,0,0,.1,0,.1h0s0,0,0,0h0c0,0,0,.1,0,.1h0s0,0,0,0h0s0,0,0,0h0s0,0,0,0h0s0,0,0,0h0s0,0,0,0h0s0,.1,0,.1h0c0,0,0,.1,0,.1h0c0,0,0,.1,0,.1h0c0,0,0,.1,0,.1h0c0,0,0,.1,0,.1h0c0,0,0,.1,0,.1h0c0,0,0,.1,0,.1h0c0,0,0,.1,0,.1h0c0,0,0,.1,0,.1h0c0,0,0,.1,0,.1h0c0,0,0,.1,0,.1h0c0,0,0,.1,0,.1h0c0,0,0,.1,0,.1h0c0,0,0,.1,0,.1h0c0,0,0,.1,0,.1h0c0,0,0,.2,0,.2h0c0,0,0,.2,0,.2h0c0,0,0,.2,0,.2h0c0,0,0,.2,0,.2h0c0,0,0,.2,0,.2h0c0,0,0,.2,0,.2h0c0,0,0,.2,0,.2h0c0,0,0,.2,0,.2h0c0,0,0,.2,0,.2h0c0,0,0,.2,0,.2h0c0,0,0,.2,0,.2h0c0,0,0,.2,0,.2h0c0,0,0,.2,0,.2h0c0,0,0,.2,0,.2h0c0,0,0,.2,0,.2h0c0,0,0,.2,0,.2h0c0,0,0,.2,0,.2h0c0,0,0,.2,0,.2h0c0,.1,0,.2,0,.2h0c0,.1,0,.2,0,.2h0c0,.1,0,.2,0,.2h0c0,.1,0,.2,0,.2h0c0,.1,0,.2,0,.2h0c0,.1,0,.2,0,.2h0c0,.1.1.2.1.2h.1c0,.1.1.2.1.2h.1c0,.1.1.2.1.2h.1c0,.1.1.2.1.2h.1c0,.1.1.2.1.2h.1c0,.1.1.2.1.2h.1c0,.1.1.2.1.2h.1c0,.1.1.2.1.2h.1c0,.1.1.2.1.2h.1c0,.1.1.2.1.2h.1c0,.1.1.2.1.2h.1c0,.1.1.2.1.2h.1c0,.1.1.2.1.2h.1c0,.1.1.2.1.2h.1c0,.1.1.2.1.2h.1c0,.1.1.2.1.2h.1c0,.1.2.2.2.2h.2c0,.1.2.3.2.3h.2c0,.1.2.3.2.3h.2c0,.1.2.3.2.3h.2c0,.1.1.2.1.2h0c0,0,0,.2,0,.2h0c0,0,.1.1.1.1h0c0,0,.1.1.1.1h.1c0,0,.1.1.1.1h.1c0,0,.1.1.1.1h.1c0,0,.1.1.1.1h.1c0,0,.1.1.1.1h.1c0,0,.1.1.1.1h.1c0,0,.1.1.1.1h.1c0,0,0,.1,0,.1h.1c0,0,0,.1,0,.1h.1s0,0,0,0h0s0,0,0,0h0s0,0,0,0h0s0,0,0,0h0s0,0,0,0h0s0,0,0,0h0s0,0,0,0h0s0,0,0,0h0s0,0,0,0h0s0,0,0,0h0s0,0,0,0h0s0,0,0,0h0s0,0,0,0h0s0,0,0,0h0s0,0,0,0h0s0,0,0,0h.1s0,0,0,0h0s0,0,0,0h0s0,0,0,0h0s0,0,0,0h0s0,0,0,0h0s0,0,0,0h0s0,0,0,0h0s0,0,0,0h0s0,0,0,0h0s0,0,0,0h0s0,0,0,0h0s0,0,0,0h0s0,0,0,0h.2c0,0,.2-.1.2-.1h.2s.2,0,.2,0h.2s.2,0,.2,0h.4s.2,0,.2,0h.2s.2,0,.2,0h.2c0,0,.2.1.2.1h.2c0,0,.2.2.2.2h.2c0,.1.2.2.2.2h.2c0,.1.2.3.2.3h.2c0,.1.2.3.2.3l.2.2v.2c.1,0,.3.2.3.2v.2c.1,0,.2.2.2.2v.2c.1,0,.2.2.2.2v.2c0,0,.2.2.2.2v.2c0,0,.1.2.1.2v.2s0,.2,0,.2v.2s0,.2,0,.2v.2s0,.2,0,.2v.2s0,.2,0,.2v.2c0,0-.1.2-.1.2v.2c0,0-.2.2-.2.2v.2c-.1,0-.2.2-.2.2v.2c-.1,0-.3.2-.3.2v.2c-.1,0-.3.2-.3.2l-.2.2h-.2c0,.1-.2.3-.2.3h-.2c0,.1-.2.2-.2.2h-.2c0,.1-.2.2-.2.2h-.2c0,0-.1.1-.1.1h-.1s-.1,0-.1,0h-.1s-.1,0-.1,0h-.1s-.1,0-.1,0h-.1s-.1,0-.1,0h-.1s-.1,0-.1,0h-.1s-.1,0-.1,0h-.1s-.1,0-.1,0h-.1s-.1,0-.1,0h-.1s-.1,0-.1,0h-.1s-.1,0-.1,0h-.1s-.1,0-.1,0h-.1s-.1,0-.1,0h-.5s-.1,0-.1,0h-.1s-.1,0-.1,0h-.1s-.1,0-.1,0h-.1s-.1,0-.1,0h-.1s-.1,0-.1,0h-.1s-.1,0-.1,0h-.1s-.1,0-.1,0h-.1s-.1,0-.1,0h-.1s-.1,0-.1,0h-.2s-.2-.1-.2-.1h-.2c0,0-.2-.1-.2-.1h-.2c0,0-.2-.1-.2-.1h-.2c0,0-.2-.1-.2-.1h-.2c0,0-.2-.2-.2-.2h-.2c0,0-.2-.2-.2-.2h-.2c0,0-.2-.2-.2-.2h-.2c0,0-.2-.2-.2-.2h-.2c0,0-.2-.2-.2-.2h-.2c0,0-.2-.2-.2-.2h-.2c0,0-.2-.2-.2-.2h-.2c0,0-.2-.2-.2-.2h-.2c0-.1-.2-.2-.2-.2h-.2c0-.1-.2-.2-.2-.2h-.2c0-.1-.2-.2-.2-.2h-.2c0-.1-.2-.2-.2-.2h-.1c0-.1-.1-.2-.1-.2h-.1c0-.1-.1-.2-.1-.2h-.1c0-.1-.1-.2-.1-.2h-.1c0-.1-.1-.2-.1-.2h-.1c0-.1-.2-.2-.2-.2h-.2c0-.1-.2-.3-.2-.3h-.2c0-.1-.2-.3-.2-.3h-.2c0-.1-.2-.3-.2-.3h-.2c0-.1-.2-.3-.2-.3h-.2c0-.1-.2-.3-.2-.3h-.2c0-.1-.2-.3-.2-.3h-.2c0-.1-.2-.3-.2-.3h-.2c0-.1-.2-.3-.2-.3h-.2c0-.1-.2-.3-.2-.3h-.2c0-.1-.2-.3-.2-.3h-.2c0-.1-.2-.3-.2-.3h-.2c0-.1-.1-.3-.1-.3h-.1c0-.1-.1-.3-.1-.3h-.1c0-.1-.1-.3-.1-.3h-.1c0-.1-.1-.3-.1-.3h-.1c0-.1-.1-.3-.1-.3h-.1c0-.1-.1-.3-.1-.3h-.1c0-.1-.1-.3-.1-.3h-.1c0-.1-.1-.3-.1-.3h-.1c0-.1-.1-.3-.1-.3h-.1c0-.1-.1-.3-.1-.3h-.1c0-.1-.1-.3-.1-.3h-.1c0-.1-.1-.3-.1-.3h-.1c0-.1-.1-.3-.1-.3h-.1c0-.1-.1-.3-.1-.3h-.1c0-.1-.1-.3-.1-.3h-.1c0-.1-.1-.3-.1-.3h-.1c0-.1-.1-.3-.1-.3h-.1c0-.1-.1-.3-.1-.3h-.1c0-.1,0-.3,0-.3h0c0-.1,0-.3,0-.3h0c0-.1,0-.3,0-.3h0c0-.1,0-.3,0-.3h0c0-.1,0-.3,0-.3h0c0-.1,0-.3,0-.3h0c0-.1,0-.3,0-.3h0c0-.1,0-.3,0-.3h0c0-.1,0-.3,0-.3h0c0-.1,0-.3,0-.3h0c0-.1,0-.3,0-.3h0c0-.1,0-.3,0-.3h0c0-.1,0-.3,0-.3h0c0-.1,0-.3,0-.3h0c0-.1,0-.3,0-.3h0c0-.1,0-.3,0-.3h0c0-.1,0-.3,0-.3h0c0-.1,0-.3,0-.3h0c0-.1,0-.3,0-.3h0c0-.1,0-.3,0-.3h0c0-.1,0-.3,0-.3h0c0-.1,0-.3,0-.3h0c0-.1,0-.3,0-.3h0c0-.1,0-.3,0-.3h0c0-.1,0-.3,0-.3h0c0-.1,0-.3,0-.3h0c0-.1,0-.3,0-.3h0c0-.1,0-.3,0-.3h0c0-.1,0-.3,0-.3h0c0-.1,0-.3,0-.3h0c0-.1,0-.3,0-.3h0c0-.1,0-.3,0-.3h0c0-.1,0-.3,0-.3h0c0-.1,0-.3,0-.3h0c0-.1,0-.3,0-.3h0c0-.1,0-.3,0-.3h0v-.3h0v-.3h0c0-.1,0-.3,0-.3h0c0-.1,0-.3,0-.3h0c0-.1,0-.3,0-.3h0c0-.1,0-.3,0-.3h0c0-.1,0-.3,0-.3h0c0-.1,0-.3,0-.3h0c0-.1,0-.3,0-.3h0c0-.1,0-.3,0-.3h0c0-.1,0-.3,0-.3h0c0-.1,0-.3,0-.3h0c0-.1,0-.3,0-.3h0c0-.1,0-.3,0-.3h0c0-.1,0-.2,0-.2h0c0-.1,0-.2,0-.2h0c0-.1,0-.2,0-.2h0c0-.1,0-.2,0-.2h0c0-.1,0-.2,0-.2h0c0-.1,0-.2,0-.2h0c0-.1,0-.2,0-.2h0c0-.1,0-.2,0-.2h0c0-.1,0-.2,0-.2h0c0-.1,0-.2,0-.2h0c0-.1,0-.2,0-.2h0c0-.1,0-.2,0-.2h0c0-.1,0-.2,0-.2h0c0-.1,0-.2,0-.2h0c0-.1,0-.2,0-.2h0c0,0,0-.2,0-.2h0c0,0,0-.2,0-.2h0c0,0,0-.2,0-.2h0c0,0,0-.2,0-.2h0c0,0,0-.2,0-.2h0c0,0,0-.2,0-.2h0c0,0,0-.2,0-.2h0c0,0,0-.2,0-.2h0c0,0,0-.2,0-.2h0c0,0,0-.2,0-.2h0c0,0,0-.2,0-.2h0c0,0,0-.2,0-.2h0c0,0,0-.2,0-.2h.1c0,0,.2-.2.2-.2h.2c0-.1.2-.3.2-.3h.2c0-.1.2-.3.2-.3h.2c0-.1.2-.3.2-.3h.2c0-.1.2-.2.2-.2h.2c0-.1.2-.2.2-.2h.2c0-.1.2-.2.2-.2h.2c0-.1.2-.2.2-.2h.2c0,0,.2-.2.2-.2h.2c0,0,.2-.2.2-.2h.2c0,0,.2-.2.2-.2h.2c0,0,.2-.2.2-.2h.2c0,0,.2-.2.2-.2h.2c0,0,.2-.1.2-.1h.2c0,0,.2-.1.2-.1h.2c0,0,.2-.1.2-.1h.2c0,0,.2-.1.2-.1h.2c0,0,.2,0,.2,0h.2s.2,0,.2,0h.2s.2,0,.2,0h.2s.3,0,.3,0h.2s.2,0,.2,0h.3s.3,0,.3,0h.3s.3,0,.3,0h.3s.3,0,.3,0h.3s.3,0,.3,0h.3s.3,0,.3,0h.3s.3,0,.3,0h0Z"/>
          <path class="cls-17" d="M169.4,393.8s-15.6-30.6-12.6-56.9c9.2-82.2-15-98.3-5.5-148.5,3.3-17.4,9.5-37.3,20.1-51.7,23.2-31.7,67.9-48.1,106.8-40.7,15.6,3,29.6,9.7,43.5,17.1,48.4,25.7,58.4,79.9,52.1,125.7-2.8,20.2-20.2,51.8-17.6,72.1,5.3,42.3,3.8,65.2-9.4,92.5-11.3,23.3-55.1,40.8-103,35.8-8.2-.8-57-9.4-74.4-45.4h0Z"/>
          <g class="cls-26">
            <g>
              <path class="cls-20" d="M342.3,133s16.5,21.2,12,54.1c-6.7,49.4-27.5,38.8-26.1,127.8.7,44.3,3.3,71.1-16.2,97.8-19,25.9-73.2,25.9-86.9,22-13.7-3.9,54.1,14.1,92.8-1.6,38.8-15.7,44.3-81.5,39.2-122.6-5.1-41.1,27.8-52.9,16.8-123.8-17.6-41.5-18-39.2-31.7-53.7h0Z"/>
              <path class="cls-20" d="M154.9,181.6s4.8,24.1,33.5,22.7c28.7-1.4,30.7-30.7,30.7-30.7l-64.2,8h0Z"/>
              <path class="cls-20" d="M277.7,190.3s4.8,24.1,33.5,22.7c28.7-1.4,30.7-30.7,30.7-30.7l-64.2,8h0Z"/>
            </g>
          </g>
          <path class="cls-19" d="M259.5,90.1h.5s.5,0,.5,0h.5s.5,0,.5,0h.5s.5,0,.5,0h.5s.5,0,.5,0h.5s.5,0,.5,0h.5s.5,0,.5,0h.5s.5,0,.5,0h.5s.5,0,.5,0h.5s.5,0,.5,0h.5s.5,0,.5,0h.5s.5,0,.5,0h.5c0,0,.5.1.5.1h.5c0,0,.5.1.5.1h.5c0,0,.5.1.5.1h.5c0,0,.5.1.5.1h.5c0,0,.5.1.5.1h.5c0,0,.5.1.5.1h.5c0,0,.5.2.5.2h.5c0,0,.5.2.5.2h.5c0,0,.5.2.5.2h.4c0,0,.4.1.4.1h.4c0,0,.4.2.4.2h.4c0,0,.4.2.4.2h.4c0,0,.4.2.4.2h.4c0,0,.4.2.4.2h.4c0,0,.4.2.4.2h.4c0,0,.4.2.4.2h.4c0,0,.4.2.4.2h.4c0,0,.4.2.4.2h.4c0,0,.4.2.4.2h.4c0,.1.4.2.4.2h.4c0,.1.4.2.4.2h.4c0,.1.4.2.4.2h.4c0,.1.4.2.4.2h.4c0,.1.4.2.4.2h.4c0,.1.4.2.4.2h.4c0,.1.4.2.4.2h.4c0,.1.4.2.4.2h.4c0,.1.4.2.4.2h.4c0,.1.4.2.4.2h.4c0,.1.4.2.4.2h.4c0,.1.4.3.4.3h.4c0,.1.4.3.4.3h.4c0,.1.4.3.4.3h.4c0,.1.4.3.4.3h.4c0,.1.4.3.4.3h.4c0,.1.4.3.4.3h.4c0,.1.3.3.3.3h.4c0,.1.3.3.3.3h.4c0,.1.3.3.3.3h.3c0,.1.3.3.3.3h.3c0,.1.3.3.3.3h.3c0,.1.3.3.3.3h.3c0,.1.3.3.3.3h.3c0,.1.3.3.3.3h.3c0,.1.3.3.3.3h.3c0,.1.3.3.3.3l.3.2.3.2.7.3.7.3.7.3.7.3.7.3.7.3.7.3.7.3.7.3.7.3.7.3.7.3.7.3.7.3.7.3.7.3.7.3.7.3.7.3.7.3.7.3.7.3.7.3.7.3.7.3.7.4.3.2.3.2.3.2.3.2.3.2.3.2.3.2.3.2.3.2.3.2.3.2.3.2.3.2.3.2.3.2.3.2.3.2.3.2.3.2.3.2.3.2.3.2.3.2.3.2.3.2.3.2.3.2.3.2.3.2.3.2.3.2.3.2.3.2.3.2.3.2.3.2.3.2.3.2.3.2.3.2.3.2.3.2.3.2.3.2.3.2.3.2.3.2.3.2.3.2.3.2.2.2.3.2.2.2.2.2.2.2.2.2.2.2.2.2.2.2.2.2.2.2.2.2.2.2.2.2.2.2.2.2.2.2.2.2.2.2.2.2.2.2.2.2.2.2.2.2.2.2.2.2.2.2.2.2.2.2.2.2.2.2.2.2.2.2.2.2.2.2.2.2.2.2.2.2.2.2.2.2.2.2.2.2.2.2.2.2.2.2.2.2.2.2.2.2.2.2.2.2.2.2.2.2.2.2.2.2.2.2.2.2.2.2.2.2.2.2.2.2.2.2.2.2.2.2.2.2.2.2.2.2.2.2.2.2.2.2.2.2.2.2.2.2.2.2.2.2.2.2.2.2.2.2.2.2.2.2.2.2.2.2.2.2.2.2.2.2.2.2.2.2.2.2.2.2.2.2.2.2.2.2.2.2.2.2.2.2.2.2.2.2.2.2.2.2.2.2.2.2.2.2.2.2.2.2.2.2.2.2.2.2.2.2.2.2.2.2.2.2.2.2.2.2.2.2.2.2.2.2.2.2.2.2.2.2.2.2.2.2.2.2.2.2.2.2.2.2v.3c.1,0,.3.2.3.2v.3c.1,0,.3.2.3.2v.3c.1,0,.3.3.3.3v.3c.1,0,.3.2.3.2v.3c.1,0,.3.3.3.3v.3c.1,0,.3.3.3.3v.3c.1,0,.3.3.3.3v.3c.1,0,.3.3.3.3v.3c.1,0,.3.3.3.3v.3c.1,0,.3.3.3.3v.3c.1,0,.3.3.3.3v.3c.1,0,.3.3.3.3v.3c.1,0,.3.3.3.3v.3c.1,0,.3.3.3.3v.3c.1,0,.3.3.3.3v.3c.1,0,.3.3.3.3l.3.5.3.5.2.5.2.5.2.5.2.5.2.5.2.5.2.5.2.5.2.5.2.5.2.5.2.5.2.5.2.5.2.5.2.5.2.5.2.5.2.5.2.5.2.5.2.5.2.5.2.5.2.5.2.5.2.5.2.5.2.6.2.5.2.5.2.6.2.6.2.6.2.6.2.6.2.6v.6c.1,0,.3.6.3.6v.6c.1,0,.3.6.3.6v.6c.1,0,.3.6.3.6v.6c.1,0,.3.6.3.6v.6c.1,0,.3.6.3.6v.6c.1,0,.3.6.3.6v.6c.1,0,.2.6.2.6v.6c.1,0,.2.6.2.6v.6c.1,0,.2.6.2.6v.6c.1,0,.2.6.2.6v.6c.1,0,.2.6.2.6v.6c0,0,.2.6.2.6v.6c0,0,.2.6.2.6v.6c0,0,.2.6.2.6v.6c0,0,.2.6.2.6v.6c0,0,.2.6.2.6v.6c0,0,.2.6.2.6v.6c0,0,.1.6.1.6v.6c0,0,.1.6.1.6v.6c0,0,.1.6.1.6v.6c0,0,.1.6.1.6v.6c0,0,.1.6.1.6v.6s0,.6,0,.6v.6s0,.6,0,.6v.6s0,.6,0,.6v.6s0,.6,0,.6v.6s0,.6,0,.6v.6s0,.6,0,.6v.6s0,.6,0,.6v.6s0,.6,0,.6v.6s0,.6,0,.6v.6s0,.6,0,.6v.6s0,.6,0,.6v.6s0,.6,0,.6v2.3s0,.6,0,.6v.6s0,.6,0,.6v.6s0,.6,0,.6v.6s0,.6,0,.6v.6s0,.6,0,.6v.6s0,.6,0,.6v.6s0,.6,0,.6v.6s0,.6,0,.6v.6s0,.6,0,.6v.6s0,.6,0,.6v.6s0,.6,0,.6v.6s0,.6,0,.6v.6s0,.6,0,.6v.6s0,.6,0,.6v.6c0,0-.1.6-.1.6v.6c0,0-.1.6-.1.6v.6c0,0-.1.6-.1.6v.6c0,0-.1.5-.1.5v.6c0,0-.1.6-.1.6v.5c0,0-.1.5-.1.5v.5c0,0-.1.5-.1.5v.5c0,0-.1.3-.1.3v.3s0,.3,0,.3v.3s0,.3,0,.3v.3s0,.3,0,.3v.3s0,.3,0,.3v.3s0,.3,0,.3v.3s-.1.3-.1.3v.3c0,0-.1.3-.1.3v.3c0,0-.1.3-.1.3v.3c0,0-.1.3-.1.3v.3c0,0-.1.3-.1.3v.3c0,0-.1.3-.1.3v.3c0,0-.1.3-.1.3v.3c0,0-.1.3-.1.3v.3c0,0-.1.3-.1.3v.3c0,0-.2.5-.2.5v.6c-.1,0-.3.6-.3.6l-.2.6-.2.6-.2.6-.2.6-.2.6-.2.6-.2.6-.2.6-.2.6-.2.6-.2.6-.2.6-.2.6-.2.6-.2.6-.2.6-.2.6-.2.6-.2.6-.2.6-.2.6-.2.6-.2.6-.2.6-.4,1.2-.4,1.2-.4,1.2-.8,2.4-.4,1.2-.4,1.2-.4,1.2-.4,1.2-.4,1.2-.2.6-.2.6-.2.6-.2.6-.2.6-.2.6-.2.6-.2.6-.2.6-.2.6-.2.6-.2.6-.2.6-.2.6-.2.6-.2.6-.2.6-.2.6-.2.6-.2.6-.2.6-.2.6-.2.6-.2.6-.2.6v.6c-.1,0-.3.6-.3.6v.3c0,0-.1.3-.1.3v.3c0,0-.1.3-.1.3v.3c0,0-.1.3-.1.3v.3c0,0-.1.3-.1.3v.3c0,0-.1.3-.1.3v.3c0,0-.1.3-.1.3v.3c0,0-.1.3-.1.3v.3c0,0-.1.3-.1.3v.3c0,0-.1.3-.1.3v.3c0,0-.1.3-.1.3v.3c0,0-.1.3-.1.3v.3s0,.3,0,.3v.3s0,.3,0,.3v.3s0,.3,0,.3v.3s0,.3,0,.3v.3s0,.3,0,.3v.3s0,.3,0,.3v.3s0,.3,0,.3v.3s0,.3,0,.3v.3s0,.3,0,.3v.3s0,.2,0,.2v.3s0,.2,0,.2v.2s0,.2,0,.2v.2s0,.2,0,.2v.2s0,.2,0,.2v.2s0,.2,0,.2v.2s0,.2,0,.2v.2s0,.2,0,.2v.2s0,.2,0,.2v.2s0,.2,0,.2v.7s0,.2,0,.2v.2s0,.2,0,.2v.2s0,.2,0,.2v.2s0,.2,0,.2v.2s0,.2,0,.2v.2s0,.2,0,.2v.2s0,.2,0,.2v.2s0,.2,0,.2v1c.1,0,.2,1,.2,1v1c.1,0,.2,1,.2,1v1c.1,0,.2,1,.2,1v1c.1,0,.2,1,.2,1v.9c.1,0,.2.9.2.9v.9c0,0,.2.9.2.9v.9c0,0,.2.9.2.9v.9c0,0,.2.9.2.9v.9c0,0,.2.9.2.9v.9c0,0,.1.9.1.9v.9c0,0,.1.9.1.9v.9c0,0,.1.9.1.9v.8c0,0,.1.8.1.8v.8c0,0,.1.8.1.8v.8s0,.8,0,.8v.8s0,.8,0,.8v.8s0,.8,0,.8v.8s0,.8,0,.8v.8s0,.8,0,.8v.8s0,.8,0,.8v.4s0,.4,0,.4v.4s0,.4,0,.4v.4s0,.4,0,.4v.4s0,.4,0,.4v1.5s0,.4,0,.4v.4s0,.4,0,.4v.4s0,.4,0,.4v.4s0,.4,0,.4v.4s0,.4,0,.4v.4s0,.4,0,.4v.4s0,.4,0,.4v.4s0,.4,0,.4v.4s0,.4,0,.4v.4s0,.4,0,.4v.4s0,.4,0,.4v.4s0,.4,0,.4v.4s0,.4,0,.4v.4s0,.4,0,.4v.4s0,.4,0,.4v.4s0,.4,0,.4v.4s0,.4,0,.4v.4s0,.4,0,.4v.3s0,.4,0,.4v.3s0,.3,0,.3v.3s0,.3,0,.3v.3s0,.3,0,.3v.3s0,.3,0,.3v.3s0,.3,0,.3v.3s0,.3,0,.3v.3s0,.3,0,.3v.3s0,.3,0,.3v.3s0,.3,0,.3v.3c0,0-.1.3-.1.3v.3c0,0-.1.3-.1.3v.3c0,0-.1.3-.1.3v.3c0,0-.1.3-.1.3v.3c0,0-.1.3-.1.3v.3c0,0-.1.3-.1.3v.3c0,0-.1.3-.1.3v.3c0,0-.1.3-.1.3v.3c0,0-.1.3-.1.3v.3c0,0-.1.3-.1.3v.3c0,0-.1.3-.1.3v.3c0,0-.1.3-.1.3v.3c0,0-.1.3-.1.3v.3c0,0-.2.3-.2.3v.3c0,0-.2.3-.2.3v.3c0,0-.2.3-.2.3v.3c0,0-.2.3-.2.3v.3c0,0-.2.3-.2.3v.3c0,0-.2.3-.2.3v.3c0,0-.2.3-.2.3v.3c0,0-.2.3-.2.3v.3c0,0-.2.3-.2.3v.3c0,0-.2.3-.2.3v.3c0,0-.2.3-.2.3v.3c0,0-.2.3-.2.3v.3c0,0-.2.3-.2.3v.3c0,0-.2.3-.2.3v.3c-.1,0-.2.3-.2.3v.3c-.1,0-.2.3-.2.3v.3c-.1,0-.2.3-.2.3v.3c-.1,0-.2.3-.2.3v.3c-.1,0-.2.3-.2.3v.3c-.1,0-.2.3-.2.3v.3c-.1,0-.2.3-.2.3v.3c-.1,0-.2.3-.2.3v.3c-.1,0-.2.3-.2.3v.3c-.1,0-.2.3-.2.3v.3c-.1,0-.2.3-.2.3v.3c-.1,0-.3.3-.3.3v.3c-.1,0-.3.3-.3.3v.3c-.1,0-.3.3-.3.3v.3c-.1,0-.3.3-.3.3v.3c-.1,0-.3.3-.3.3v.3c-.1,0-.3.3-.3.3v.3c-.1,0-.3.3-.3.3v.3c-.1,0-.3.3-.3.3v.3c-.1,0-.3.3-.3.3v.3c-.1,0-.3.3-.3.3v.3c-.1,0-.3.3-.3.3v.3c-.1,0-.3.3-.3.3v.3c-.1,0-.3.3-.3.3l-.2.3-.2.3-.2.3-.2.3-.2.3-.2.3-.2.3v.3c-.1,0-.3.3-.3.3l-.2.3-.2.3-.2.3-.2.3-.2.3-.2.3-.2.3-.2.3-.2.3-.2.3-.2.3-.2.3-.2.3-.2.3-.2.3-.2.3-.2.3-.2.3-.2.3-.2.3-.2.3-.2.3-.2.3-.2.3-.2.3-.2.3-.2.3-.2.3-.2.3-.2.3-.2.3-.2.3-.2.3-.3.3-.3.3-.3.3-.3.3-.3.3-.3.3-.3.3-.3.3-.3.3-.3.3-.3.3-.3.3-.3.3-.3.3-.3.3-.3.3-.3.3-.3.3-.3.3-.3.3-.3.2-.3.2-.3.2-.3.2-.3.2-.3.2-.3.2-.3.2-.3.2-.3.2-.3.2-.3.2-.3.2-.3.2-.3.2-.3.2-.3.2-.3.2-.3.2-.3.2-.3.2-.3.2-.4.2-.4.2-.4.2-.4.2-.4.2-.4.2-.4.2-.4.2-.4.2-.4.2-.4.2-.4.2-.4.2-.4.2-.4.2-.4.2-.4.2-.4.2-.4.2-.4.2-.4.2-.4.2-.4.2-.4.2-.4.2-.4.2-.4.2-.4.2-.4.2-.4.2-.4.2-.4.2-.4.2-.4.2-.4.2-.4.2-.4.2-.4.2-.4.2-.4.2-.4.2-.4.2-.4.2-.4.2-.4.2-.4.2-.4.2-.4.2-.4.2-.4.2-.4.2-.4.2-.4.2-.5.2-.5.2-.5.2-.5.2-.5.2h-.5c0,.1-.5.3-.5.3h-.5c0,.1-.5.3-.5.3h-.5c0,.1-.5.3-.5.3h-.5c0,.1-.5.3-.5.3h-.5c0,.1-.5.3-.5.3h-.5c0,.1-.5.3-.5.3h-.5c0,.1-.5.3-.5.3h-.5c0,.1-.5.3-.5.3h-.5c0,.1-.5.3-.5.3h-.5c0,.1-.5.2-.5.2h-.5c0,.1-.5.2-.5.2h-.5c0,.1-.5.2-.5.2h-.5c0,.1-.5.2-.5.2h-.5c0,.1-.5.2-.5.2h-.5c0,.1-.5.2-.5.2h-.5c0,.1-.5.2-.5.2h-.5c0,.1-.5.2-.5.2h-.5c0,0-.5.2-.5.2h-.5c0,0-.5.2-.5.2h-.5c0,0-.5.2-.5.2h-.5c0,0-.5.2-.5.2h-.5c0,0-.5.2-.5.2h-.5c0,0-.5.2-.5.2h-.5c0,0-.5.2-.5.2h-.5c0,0-.5.2-.5.2h-.5c0,0-.5.1-.5.1h-.5c0,0-.5.1-.5.1h-.5c0,0-.5.1-.5.1h-.5c0,0-.5.1-.5.1h-.5c0,0-.5.1-.5.1h-.5c0,0-.5.1-.5.1h-.5c0,0-.5.1-.5.1h-.5s-.5,0-.5,0h-.5s-.5,0-.5,0h-.5s-.5,0-.5,0h-.5s-.5,0-.5,0h-.5s-.5,0-.5,0h-.5s-.5,0-.5,0h-.5s-.5,0-.5,0h-.5s-.6,0-.6,0h-.5s-.6,0-.6,0h-.6s-.6,0-.6,0h-.6s-.6,0-.6,0h-.6s-.6,0-.6,0h-.6s-.6,0-.6,0h-2.2s-.6,0-.6,0h-.6s-.6,0-.6,0h-.6s-.6,0-.6,0h-.6s-.6,0-.6,0h-.6s-.6,0-.6,0h-.6s-.6,0-.6,0h-.6s-.6,0-.6,0h-.6s-.6,0-.6,0h-.6s-.6,0-.6,0h-.6s-.6,0-.6,0h-.6s-.6,0-.6,0h-.6s-.6,0-.6,0h-.6s-.6-.1-.6-.1h-.6c0,0-.6-.1-.6-.1h-.2s-.2,0-.2,0h-.3s-.3,0-.3,0h-.3s-.3,0-.3,0h-.3s-.3,0-.3,0h-.3s-.3-.1-.3-.1h-.4c0,0-.4-.1-.4-.1h-.4c0,0-.4-.1-.4-.1h-.4c0,0-.4-.1-.4-.1h-.4c0,0-.4-.2-.4-.2h-.5c0,0-.5-.2-.5-.2h-.5c0,0-.5-.2-.5-.2h-.5c0,0-.5-.2-.5-.2h-.5c0-.1-.5-.2-.5-.2h-.5c0-.1-.5-.2-.5-.2h-.5c0-.1-.6-.3-.6-.3h-.6c0-.1-.6-.3-.6-.3h-.6c0-.1-.6-.3-.6-.3l-.6-.2-.6-.2-.6-.2-.6-.2-.6-.2h-.3c0,0-.3-.2-.3-.2h-.3c0,0-.3-.2-.3-.2h-.3c0,0-.3-.2-.3-.2h-.3c0,0-.3-.2-.3-.2h-.3c0,0-.3-.2-.3-.2h-.3c0-.1-.3-.2-.3-.2h-.3c0-.1-.3-.2-.3-.2h-.3c0-.1-.3-.2-.3-.2h-.3c0-.1-.3-.2-.3-.2h-.3c0-.1-.3-.2-.3-.2h-.3c0-.1-.3-.2-.3-.2h-.4c0-.1-.4-.2-.4-.2h-.4c0-.1-.4-.2-.4-.2h-.4c0-.1-.4-.3-.4-.3h-.4c0-.1-.4-.3-.4-.3h-.4c0-.1-.4-.3-.4-.3h-.4c0-.1-.4-.3-.4-.3h-.4c0-.1-.4-.3-.4-.3h-.4c0-.1-.4-.3-.4-.3h-.4c0-.1-.4-.3-.4-.3h-.4c0-.1-.4-.3-.4-.3h-.4c0-.1-.4-.3-.4-.3l-.4-.2-.4-.2-.4-.2-.4-.2-.4-.2-.4-.2-.4-.2-.4-.2-.4-.2-.4-.2-.4-.2-.4-.2-.4-.2-.4-.2-.4-.2-.4-.2-.4-.2-.4-.2-.4-.2-.4-.2-.4-.2-.4-.2-.4-.2-.4-.2-.4-.2-.4-.2-.4-.2-.4-.2-.4-.2-.4-.2-.4-.2-.4-.2-.4-.2-.4-.2-.4-.2-.4-.2-.4-.2-.4-.2-.4-.2-.4-.2-.4-.2-.4-.2-.4-.2-.4-.2-.4-.2-.4-.2-.4-.2-.4-.2-.4-.2-.4-.2-.4-.2-.4-.2-.4-.3-.4-.3-.4-.3-.4-.3-.4-.3-.4-.3-.4-.3-.4-.3-.4-.3-.4-.3-.4-.3-.4-.3-.4-.3-.4-.3-.4-.3-.4-.3-.4-.3-.4-.3-.4-.3-.4-.3-.3-.3-.4-.3-.3-.3-.3-.3-.3-.3-.3-.3-.3-.3-.3-.3-.3-.3-.3-.3-.3-.3-.3-.3-.3-.3-.3-.3-.3-.3-.3-.3-.3-.3-.3-.3-.3-.3-.3-.3-.3-.3-.3-.3-.3-.3-.3-.4-.3-.4-.3-.4-.3-.4-.2-.2-.2-.2v-.2c-.1,0-.3-.2-.3-.2l-.2-.2v-.2c-.1,0-.3-.2-.3-.2v-.2c-.1,0-.3-.2-.3-.2v-.2c-.1,0-.3-.2-.3-.2v-.2c-.1,0-.3-.2-.3-.2v-.2c-.1,0-.3-.2-.3-.2v-.2c-.1,0-.3-.2-.3-.2v-.2c-.1,0-.3-.2-.3-.2v-.2c-.1,0-.3-.2-.3-.2v-.2c-.1,0-.3-.2-.3-.2v-.2c-.1,0-.3-.2-.3-.2v-.2c-.1,0-.3-.2-.3-.2v-.2c-.1,0-.3-.2-.3-.2v-.2c-.1,0-.3-.2-.3-.2v-.2c-.1,0-.3-.2-.3-.2v-.2c-.1,0-.3-.2-.3-.2v-.2c-.1,0-.3-.2-.3-.2v-.2c-.1,0-.3-.2-.3-.2v-.2c-.1,0-.3-.2-.3-.2v-.2c-.1,0-.3-.2-.3-.2v-.2c-.1,0-.3-.2-.3-.2v-.2c-.1,0-.3-.2-.3-.2v-.2c-.1,0-.2-.2-.2-.2v-.2c-.1,0-.2-.2-.2-.2v-.2c-.1,0-.2-.2-.2-.2v-.2c-.1,0-.2-.2-.2-.2v-.2c-.1,0-.2-.2-.2-.2v-.2c-.1,0-.2-.2-.2-.2v-.2c-.1,0-.2-.2-.2-.2v-.2c-.1,0-.2-.2-.2-.2v-.2c-.1,0-.2-.2-.2-.2v-.2c-.1,0-.2-.2-.2-.2v-.2c-.1,0-.2-.2-.2-.2v-.2c0,0-.1,0-.1,0v-.3c-.1,0-.2-.2-.2-.2v-.2c-.1,0-.3-.3-.3-.3l-.2-.3-.2-.4-.2-.4-.2-.4-.2-.5-.2-.5-.2-.5-.3-.6v-.3c-.1,0-.3-.3-.3-.3v-.3c-.1,0-.3-.3-.3-.3v-.3c-.1,0-.3-.3-.3-.3v-.4c-.1,0-.3-.4-.3-.4v-.4c-.1,0-.3-.4-.3-.4l-.2-.4-.2-.4-.2-.4-.2-.4-.2-.4-.2-.4-.2-.4-.2-.4-.2-.4-.2-.4-.2-.5-.2-.5-.2-.5-.2-.5-.2-.5-.2-.5-.2-.5-.2-.5-.2-.5-.2-.5-.2-.5-.2-.5-.2-.5-.2-.5-.2-.5-.2-.5-.2-.5-.2-.5-.2-.5-.2-.6-.2-.6-.2-.6-.2-.6-.2-.6-.2-.6-.2-.6-.2-.6-.2-.6-.2-.6v-.6c-.1,0-.3-.6-.3-.6v-.6c-.1,0-.3-.6-.3-.6v-.3c0,0-.1-.3-.1-.3v-.3c0,0-.1-.3-.1-.3v-.3c0,0-.1-.3-.1-.3v-.3c0,0-.1-.3-.1-.3v-.3c0,0-.1-.3-.1-.3v-.3c0,0-.1-.3-.1-.3v-.3c0,0-.1-.3-.1-.3v-.3c0,0-.1-.3-.1-.3v-.3c0,0-.1-.3-.1-.3v-.3c0,0-.1-.3-.1-.3v-.3c0,0-.1-.3-.1-.3v-.3c0,0-.1-.3-.1-.3v-.3c0,0-.1-.3-.1-.3v-.3s0-.3,0-.3v-.3s0-.3,0-.3v-.3s0-.3,0-.3v-.3s0-.3,0-.3v-.3s0-.3,0-.3v-.3s0-.3,0-.3v-.3s0-.3,0-.3v-.3s0-.3,0-.3v-.3s0-.3,0-.3v-.3s0-.3,0-.3v-.3s0-.3,0-.3v-.3s0-.3,0-.3v-.3s0-.3,0-.3v-.3s0-.3,0-.3v-.3s0-.3,0-.3v-.3s0-.3,0-.3v-.3s0-.3,0-.3v-.3s0-.3,0-.3v-.3s0-.3,0-.3v-.3s0-.3,0-.3v-1.3s0-.3,0-.3v-.3s0-.3,0-.3v-.3s0-.3,0-.3v-.3s0-.3,0-.3v-.3s0-.3,0-.3v-.3s0-.3,0-.3v-.3s0-.3,0-.3v-.3s0-.3,0-.3v-.3s0-.3,0-.3v-.3s0-.3,0-.3v-.3s.1-1,.1-1v-.9c.1,0,.2-.9.2-.9v-.9c0,0,.2-.9.2-.9v-.9c0,0,.2-.9.2-.9v-.9c0,0,.2-.9.2-.9v-.9c0,0,.2-.9.2-.9v-.9c0,0,.1-.9.1-.9v-.9c0,0,.1-.9.1-.9v-.9c0,0,.1-.9.1-.9v-.9c0,0,.1-.8.1-.8v-.8s0-.8,0-.8v-.8s0-.8,0-.8v-.8s0-.8,0-.8v-.8s0-.8,0-.8v-.8s0-.8,0-.8v-.8s0-.8,0-.8v-.8s0-.8,0-.8v-.8s0-.8,0-.8v-.8s0-.8,0-.8v-.7s0-.7,0-.7v-.7s0-.7,0-.7v-2.2s0-.7,0-.7v-.7s0-.7,0-.7v-.7s0-.7,0-.7v-.7s0-.7,0-.7v-.7s0-.7,0-.7v-.7s0-.7,0-.7v-.7s0-.7,0-.7v-.7s0-.7,0-.7v-.7s0-.7,0-.7v-.6s0-.6,0-.6v-.6s0-.6,0-.6v-.6s0-.6,0-.6v-.6s0-.6,0-.6v-.6s0-.6,0-.6v-.6s0-.6,0-.6v-.6c0,0-.1-.6-.1-.6v-.6c0,0-.1-.6-.1-.6v-.6c0,0-.1-.6-.1-.6v-.6c0,0-.1-.6-.1-.6v-.6c0,0-.1-.6-.1-.6v-.6c0,0-.1-.6-.1-.6v-.6c0,0-.1-.6-.1-.6v-.6c0,0-.1-.6-.1-.6v-.6c0,0-.1-.5-.1-.5v-.6c0,0-.1-.5-.1-.5v-.5c0,0-.1-.5-.1-.5v-.5c0,0-.1-.5-.1-.5v-.5c0,0-.1-.5-.1-.5v-.5c0,0-.2-.5-.2-.5v-.5c0,0-.2-.5-.2-.5v-.5c0,0-.2-.5-.2-.5v-.5c0,0-.2-.5-.2-.5v-.5c0,0-.2-.5-.2-.5v-.5c0,0-.2-1-.2-1l-.2-1-.2-1-.2-1-.2-1-.2-1-.2-1-.2-1-.2-1-.2-1-.2-1-.3-1.9-.3-1.9-.2-.9-.2-.9-.2-.9-.2-.9-.2-.9-.2-.9-.2-.9-.2-.9-.2-.9-.2-.9v-.5c0,0-.1-.5-.1-.5v-.5c0,0-.1-.5-.1-.5v-.5c0,0-.1-.5-.1-.5v-.5c0,0-.1-.5-.1-.5v-.5c0,0-.1-.5-.1-.5v-.5c0,0-.1-.5-.1-.5v-.5c0,0-.1-.5-.1-.5v-.5c0,0-.1-.5-.1-.5v-.5c0,0-.1-.5-.1-.5v-.5c0,0-.1-.5-.1-.5v-.5c0,0-.1-.5-.1-.5v-.5s-.1-.5-.1-.5v-.5s0-.5,0-.5v-.5s0-.5,0-.5v-.5s0-.5,0-.5v-.5s0-.5,0-.5v-.5s0-.5,0-.5v-.5s0-.5,0-.5v-.5s0-.5,0-.5v-.5s0-.5,0-.5v-.5s0-.5,0-.5v-.5s0-.5,0-.5v-.5s0-.5,0-.5v-.5s0-.5,0-.5v-.5s0-.5,0-.5v-.5s0-.5,0-.5v-1s0-.5,0-.5v-.5s0-.5,0-.5v-.5s0-.5,0-.5v-.5s0-.5,0-.5v-.5s0-.5,0-.5v-.5s0-.5,0-.5v-.5s0-.5,0-.5v-.5s0-.5,0-.5v-.5s0-.5,0-.5v-.5s0-.5,0-.5v-.5s0-.5,0-.5v-.5c0,0,.1-.6.1-.6v-.6c0,0,.1-.6.1-.6v-.6c0,0,.1-.6.1-.6v-.6c0,0,.1-.6.1-.6v-.6c0,0,.2-.6.2-.6v-.6c0,0,.2-.6.2-.6v-.6c0,0,.2-.6.2-.6v-.6c0,0,.2-.6.2-.6v-.6c0,0,.2-.6.2-.6v-.6c.1,0,.2-.6.2-.6v-.6c.1,0,.2-.4.2-.4v-.4c0,0,.2-.4.2-.4v-.4c0,0,.2-.4.2-.4v-.4c0,0,.2-.4.2-.4v-.4c0,0,.2-.4.2-.4v-.4c0,0,.2-.4.2-.4v-.4c0,0,.2-.4.2-.4v-.4c0,0,.2-.4.2-.4v-.4c0,0,.2-.4.2-.4v-.4c0,0,.2-.4.2-.4v-.4c.1,0,.2-.4.2-.4v-.4c.1,0,.2-.4.2-.4v-.4c.1,0,.2-.4.2-.4v-.4c.1,0,.2-.4.2-.4v-.4c.1,0,.2-.4.2-.4v-.4c.1,0,.2-.4.2-.4v-.4c.1,0,.2-.4.2-.4v-.4c.1,0,.2-.4.2-.4v-.4c.1,0,.2-.4.2-.4v-.4c.1,0,.2-.4.2-.4v-.4c.1,0,.3-.4.3-.4v-.4c.1,0,.3-.4.3-.4v-.4c.1,0,.3-.4.3-.4v-.4c.1,0,.3-.4.3-.4v-.4c.1,0,.3-.4.3-.4v-.4c.1,0,.3-.4.3-.4v-.4c.1,0,.3-.4.3-.4v-.4c.1,0,.3-.4.3-.4v-.4c.1,0,.3-.4.3-.4v-.4c.1,0,.3-.4.3-.4v-.4c.1,0,.3-.4.3-.4l.2-.4.2-.4.2-.4.2-.4.2-.4.2-.4.2-.4.2-.4.2-.4.2-.4.2-.4.2-.4.2-.4.2-.4.2-.4.2-.4.2-.4.2-.4.2-.4.2-.4.2-.4.2-.4.2-.4.2-.4.2-.4.2-.4.2-.4.2-.4.2-.4.2-.4.2-.4.2-.4.2-.4.2-.4.2-.4.2-.4.2-.4.2-.4.2-.4.2-.4.2-.4.2-.4.2-.4.2-.4.2-.4.2-.4.2-.4.2-.4.2-.4.2-.4.2-.4.2-.4.2-.4.2-.4.2-.4.2-.4.2-.4.2-.4.2-.4.2-.4.3-.4.3-.4.3-.4.3-.4.3-.4.3-.4.3-.4.3-.4.3-.4.3-.4.3-.4.3-.4.3-.4.3-.4.3-.4.3-.4.3-.4.3-.4.3-.4.3-.4.3-.4.3-.4.3-.4.3-.4.3-.4.3-.4.3-.4.3-.4.3-.4.3-.4.3-.4.3-.4.3-.3.3-.3.3-.3.3-.3.3-.3.3-.3.3-.3.3-.3.3-.3.4-.3.3-.3.4-.3.4-.3.4-.3.4-.3.4-.3.4-.3.4-.3.4-.3.4-.3.4-.3.4-.3.4-.3.4-.3.4-.3.4-.3.4-.3.4-.3.4-.3.4-.3.4-.3.4-.3.4-.3.4-.3.4-.3.4-.3.4-.3.4-.3.4-.3.4-.3.4-.3.4-.3.4-.3.4-.3.4-.3.4-.3.4-.3.4-.3.4-.3.4-.3.4-.3.4-.3.4-.3.4-.3.4-.3.4-.3.4-.3.4-.3.4-.3.4-.3.4-.2.4-.2.4-.2.4-.2.4-.2.4-.2.4-.2.4-.2.4-.2.4-.2.4-.2.4-.2.4-.2.4-.2.4-.2.4-.2.4-.2.4-.2.4-.2.4-.2.4-.2.4-.2.4-.2.4-.2.4-.2.4-.2.4-.2.4-.2.5-.2.4-.2.5-.2.5-.2.5-.2.5-.2.5-.2.5-.2.5-.2.5-.2.5-.2.5-.2.5-.2.5-.2.5-.2.5-.2.5-.2.5-.2.5-.2.5-.2.5-.2.5-.2.5-.2.5-.2.5-.2.5-.2h.5c0-.1.5-.3.5-.3h.5c0-.1.5-.3.5-.3h.5c0-.1.5-.3.5-.3h.5c0-.1.5-.3.5-.3h.5c0-.1.5-.3.5-.3h.5c0-.1.5-.3.5-.3h.5c0-.1.5-.3.5-.3h.5c0-.1.5-.2.5-.2h.5c0-.1.5-.2.5-.2h.5c0-.1.5-.2.5-.2h.5c0-.1.5-.2.5-.2h.5c0-.1.5-.2.5-.2h.5c0-.1.5-.2.5-.2h.5c0,0,.5-.2.5-.2h.5c0,0,.5-.2.5-.2h.5c0,0,.5-.2.5-.2h.5c0,0,.5-.2.5-.2h.5c0,0,.5-.2.5-.2h.5c0,0,.5-.2.5-.2h.5c0,0,.5-.2.5-.2h.5c0,0,.5-.1.5-.1h.5c0,0,.5-.1.5-.1h.5c0,0,.5-.1.5-.1h.5c0,0,.5-.1.5-.1h.5c0,0,.5-.1.5-.1h.5c0,0,.5-.1.5-.1h.5s.5,0,.5,0h.5s.5,0,.5,0h.5s.5,0,.5,0h.5s.5,0,.5,0h.5s.5,0,.5,0h.5s.5,0,.5,0h.5s.5,0,.5,0h.5s.5,0,.5,0h.5s.5,0,.5,0h.5s.5,0,.5,0h.5s.5,0,.5,0h.5s.5,0,.5,0h.5ZM258.6,98.4h-.9s-.5,0-.5,0h-.5s-.5,0-.5,0h-.5s-.5,0-.5,0h-.5s-.5,0-.5,0h-.5s-.5,0-.5,0h-.5s-.5,0-.5,0h-.5s-.5,0-.5,0h-.5s-.5,0-.5,0h-.5s-.5,0-.5,0h-.5s-.5,0-.5,0h-.5s-.5,0-.5,0h-.5s-.5,0-.5,0h-.5s-.5.1-.5.1h-.5c0,0-.5.1-.5.1h-.5c0,0-.5.1-.5.1h-.5c0,0-.5.1-.5.1h-.5c0,0-.5.1-.5.1h-.5c0,0-.5.1-.5.1h-.5c0,0-.5.1-.5.1h-.5c0,0-.4.2-.4.2h-.5c0,0-.5.2-.5.2h-.4c0,0-.5.2-.5.2h-.4c0,0-.4.2-.4.2h-.5c0,0-.4.2-.4.2h-.4c0,0-.4.2-.4.2h-.4c0,0-.4.2-.4.2h-.4c0,.1-.4.2-.4.2h-.4c0,.1-.4.2-.4.2h-.4c0,.1-.4.2-.4.2h-.4c0,.1-.4.2-.4.2h-.4c0,.1-.4.2-.4.2h-.4c0,.1-.4.2-.4.2h-.4c0,.1-.4.3-.4.3h-.4c0,.1-.4.3-.4.3h-.4c0,.1-.4.3-.4.3h-.4c0,.1-.4.3-.4.3h-.4c0,.1-.4.3-.4.3h-.4c0,.1-.4.3-.4.3h-.4c0,.1-.4.3-.4.3h-.4c0,.1-.4.3-.4.3l-.4.2-.4.2-.4.2-.4.2-.4.2-.4.2-.4.2-.4.2-.4.2-.4.2-.4.2-.4.2-.4.2-.4.2-.4.2-.4.2-.4.2-.4.2-.4.2-.4.2-.4.2-.4.2-.4.2-.4.2-.4.2-.4.2-.4.2-.4.2-.4.2-.4.2-.4.2-.4.2-.4.2-.4.2-.4.2-.4.2-.4.2-.4.2-.4.2-.4.2-.4.2-.4.2-.4.2-.4.2-.4.2-.4.2-.4.2-.4.2-.4.2-.4.2-.4.2-.4.2-.4.2-.4.2-.4.2-.4.2-.4.2-.4.2-.4.2-.4.3-.4.3-.4.3-.4.3-.4.3-.4.3-.4.3-.4.3-.4.3-.4.3-.4.3-.4.3-.4.3-.4.3-.4.3-.4.3-.4.3-.4.3-.4.3-.4.3-.4.3-.3.3-.3.3-.3.3-.3.3-.3.3-.3.3-.3.3-.3.3-.3.3-.3.3-.3.3-.3.3-.3.3-.3.3-.3.3-.3.3-.3.3-.3.3-.3.3-.3.3-.3.3-.3.3-.3.3-.3.3-.3.3-.3.3-.3.3-.3.3-.3.3-.3.3-.3.3-.3.3-.3.3-.3.3-.3.3-.3.3-.3.3-.3.3-.3.3-.3.3-.3.3-.3.3-.3.3-.3.3-.3.3-.3.3-.3.3-.3.3-.3.3-.3.4-.3.4-.3.4-.3.4-.2.3-.2.3-.2.3-.2.3-.2.3-.2.3-.2.3-.2.3-.2.3-.2.3-.2.3-.2.3-.2.3-.2.3-.2.3-.2.3-.2.4-.2.4-.2.4-.2.4-.2.4-.2.4-.2.4-.2.4-.2.4-.2.4-.2.4-.2.4-.2.4-.2.4-.2.4-.2.4-.2.4-.2.4-.2.4-.2.4-.2.4-.2.4-.2.4-.2.4-.2.4-.2.4-.2.4-.2.4-.2.4-.2.4-.2.4-.2.4-.2.4-.2.4-.2.4-.2.4-.2.4-.2.4-.2.4-.2.4-.2.4-.2.4-.2.4-.2.4-.2.4-.2.4-.2.4v.4c-.1,0-.3.4-.3.4v.4c-.1,0-.3.4-.3.4v.4c-.1,0-.3.4-.3.4v.4c-.1,0-.3.4-.3.4v.4c-.1,0-.3.4-.3.4v.4c-.1,0-.3.4-.3.4v.4c-.1,0-.3.4-.3.4v.4c-.1,0-.3.4-.3.4v.4c-.1,0-.3.4-.3.4v.4c-.1,0-.3.4-.3.4v.4c-.1,0-.2.4-.2.4v.4c-.1,0-.2.4-.2.4v.4c-.1,0-.2.4-.2.4v.4c-.1,0-.2.4-.2.4v.4c-.1,0-.2.4-.2.4v.4c-.1,0-.2.4-.2.4v.4c-.1,0-.2.4-.2.4v.4c-.1,0-.2.4-.2.4v.4c-.1,0-.2.4-.2.4v.4c-.1,0-.2.4-.2.4v.4c-.1,0-.2.4-.2.4v.4c0,0-.2.4-.2.4v.4c0,0-.2.4-.2.4v.4c0,0-.2.4-.2.4v.4c0,0-.2.4-.2.4v.4c0,0-.2.4-.2.4v.4c0,0-.2.4-.2.4v.4c0,0-.2.4-.2.4v.4c0,0-.2.4-.2.4v.4c0,0-.2.4-.2.4v.4c0,0-.2.4-.2.4v.4c0,0-.2.4-.2.4v.4c0,0-.2.6-.2.6v.6c-.1,0-.2.6-.2.6v.6c0,0-.2.6-.2.6v.6c0,0-.2.5-.2.5v.5c0,0-.2.5-.2.5v.5c0,0-.2.5-.2.5v.5c0,0-.1.5-.1.5v.5c0,0-.1.5-.1.5v.5c0,0-.1.5-.1.5v.5c0,0-.1.5-.1.5v.5c0,0-.1.5-.1.5v.5s0,.5,0,.5v.5s0,.5,0,.5v.5s0,.5,0,.5v.5s0,.5,0,.5v.5s0,.5,0,.5v.5s0,.5,0,.5v.5s0,.5,0,.5v.5s0,.5,0,.5v.5s0,.5,0,.5v.5s0,.5,0,.5v.5s0,.5,0,.5v.9s0,.5,0,.5v.5s0,.5,0,.5v.5s0,.5,0,.5v.5s0,.5,0,.5v.5s0,.5,0,.5v.5s0,.5,0,.5v.5s0,.5,0,.5v.5s0,.5,0,.5v.5s0,.4,0,.4v.5s0,.4,0,.4v.4s0,.4,0,.4v.4s0,.4,0,.4v.4s0,.4,0,.4v.4s0,.4,0,.4v.4s0,.4,0,.4v.4s.1.4.1.4v.4c0,0,.1.4.1.4v.4c0,0,.1.4.1.4v.4c0,0,.1.4.1.4v.4c0,0,.1.4.1.4v.4c0,0,.1.4.1.4v.4c0,0,.1.4.1.4v.4c0,0,.1.4.1.4v.4c0,0,.1.4.1.4v.4c0,0,.1.4.1.4v.4c0,0,.1.4.1.4v.9c.1,0,.3.9.3.9l.2.9.2.9.2.9.2.9.2.9.2.9.2.9.2.9.3,1.9.3,1.9.2,1,.2,1,.2,1,.2,1,.2,1,.2,1,.2,1,.2,1,.2,1,.2,1,.2,1v.5c0,0,.2.5.2.5v.5c0,0,.2.5.2.5v.5c0,0,.2.5.2.5v.5c0,0,.2.5.2.5v.5c0,0,.2.5.2.5v.5c0,0,.2.5.2.5v.5c0,0,.2.6.2.6v.6c0,0,.2.6.2.6v.6c0,0,.1.6.1.6v.6c0,0,.1.6.1.6v.6c0,0,.1.6.1.6v.6c0,0,.1.6.1.6v.6c0,0,.1.6.1.6v.6c0,0,.1.6.1.6v.6c0,0,.1.6.1.6v.6c0,0,.1.6.1.6v.6c0,0,.1.6.1.6v.6c0,0,.1.6.1.6v.6s.1.6.1.6v.6s0,.6,0,.6v.6s0,.6,0,.6v.6s0,.6,0,.6v.7s0,.7,0,.7v.7s0,.7,0,.7v.7s0,.7,0,.7v.7s0,.7,0,.7v.7s0,.7,0,.7v.7s0,.7,0,.7v.7s0,.7,0,.7v.7s0,.7,0,.7v.7s0,.7,0,.7v.7s0,.7,0,.7v.7s0,.7,0,.7v.7s0,.8,0,.8v.8s0,.8,0,.8v.8s0,.8,0,.8v.8s0,.8,0,.8v.8s0,.8,0,.8v.8s0,.8,0,.8v.8s0,.8,0,.8v.8s0,.8,0,.8v.8s0,.8,0,.8v.8s0,.8,0,.8v.8s0,.8,0,.8v.9s0,.9,0,.9v.9c0,0-.1.9-.1.9v.9c0,0-.1.9-.1.9v.9c0,0-.1.9-.1.9v.9c0,0-.1.9-.1.9v.9c0,0-.2.9-.2.9v.9c0,0-.2.9-.2.9v.9c0,0-.2.9-.2.9v.9c0,0-.2.9-.2.9v1c0,0-.2,1-.2,1v1c-.1,0-.2,1-.2,1v.3s0,.3,0,.3v.3s0,.3,0,.3v.3s0,.3,0,.3v.3s0,.3,0,.3v.3s0,.3,0,.3v.3s0,.3,0,.3v.3s0,.3,0,.3v.3s0,.3,0,.3v.3s0,.3,0,.3v.3s0,.3,0,.3v.6s0,.3,0,.3v.6s0,.3,0,.3v.3s0,.3,0,.3v.3s0,.3,0,.3v.3s0,.3,0,.3v.3s0,.3,0,.3v.3s0,.3,0,.3v.3s0,.3,0,.3v.3s0,.3,0,.3v.3s0,.3,0,.3v.3s0,.3,0,.3v.3s0,.3,0,.3v.3s0,.3,0,.3v.3s0,.3,0,.3v.3s0,.3,0,.3v.3s0,.3,0,.3v.3s0,.3,0,.3v.3s0,.3,0,.3v.3s0,.3,0,.3v.3s0,.3,0,.3v.3s0,.3,0,.3v.3s0,.3,0,.3v.3s0,.3,0,.3v.3s.1.3.1.3v.3s.1.3.1.3v.3c0,0,.1.3.1.3v.3c0,0,.1.3.1.3v.3c0,0,.1.3.1.3v.3c0,0,.1.3.1.3v.3c0,0,.1.3.1.3v.3c0,0,.1.3.1.3v.3c0,0,.1.3.1.3v.3c0,0,.1.3.1.3v.3c0,0,.1.3.1.3v.6c.1,0,.3.6.3.6v.6c.1,0,.3.6.3.6v.6c.1,0,.3.5.3.5v.5c.1,0,.3.5.3.5l.2.5v.5c.1,0,.3.5.3.5l.2.5.2.5.2.5.2.5.2.5.2.5.2.5.2.5.2.5.2.5.2.5.2.5.2.5.2.5.2.5.2.5.2.5.2.5.2.4.2.4.2.4.2.4.2.4.2.4.2.4.2.4.2.4.2.4.2.4v.4c.1,0,.3.4.3.4v.4c.1,0,.3.4.3.4v.3c.1,0,.3.3.3.3v.3c.1,0,.3.3.3.3v.3c.1,0,.3.3.3.3v.3c.1,0,.3.3.3.3v.3c.1,0,.4.5.4.5l.2.5.2.5.2.4.2.4.2.4.2.3v.3c.1,0,.3.3.3.3v.2c.1,0,.2.2.2.2v.2c.1,0,.2.1.2.1v.2c.1,0,.2.2.2.2v.2c0,0,.2.2.2.2v.2c0,0,.2.2.2.2v.2c0,0,.2.2.2.2v.2c.1,0,.2.2.2.2v.2c.1,0,.2.2.2.2v.2c.1,0,.2.2.2.2v.2c.1,0,.2.2.2.2v.2c.1,0,.2.2.2.2v.2c.1,0,.2.2.2.2v.2c.1,0,.2.2.2.2v.2c.1,0,.2.2.2.2v.2c.1,0,.2.2.2.2v.2c.1,0,.2.2.2.2v.2c.1,0,.2.2.2.2v.2c.1,0,.2.2.2.2v.2c.1,0,.2.2.2.2v.2c.1,0,.2.2.2.2v.2c.1,0,.2.2.2.2v.2c.1,0,.2.2.2.2v.2c.1,0,.2.2.2.2v.2c.1,0,.2.2.2.2v.2c.1,0,.2.2.2.2v.2c.1,0,.2.2.2.2v.2c.1,0,.3.2.3.2v.2c.1,0,.2.2.2.2v.2c.1,0,.3.2.3.2v.2c.1,0,.3.2.3.2v.2c.1,0,.3.2.3.2v.2c.1,0,.3.2.3.2v.2c.1,0,.3.2.3.2v.2c.1,0,.3.2.3.2v.2c.1,0,.3.2.3.2v.2c.1,0,.3.2.3.2v.2c.1,0,.3.2.3.2l.3.3.3.3.3.3.3.3.3.3.3.3.3.3.3.3.3.3.3.3.3.3.3.3.3.3.3.3.3.3.3.3.3.3.3.3.3.3.3.3.3.3.3.3.3.3.3.3.3.3.3.3.3.3.3.3.3.3.3.3.3.3.3.3.3.3.3.3.3.3.3.2.3.2.3.2.3.2.3.2.3.2.3.2.3.2.3.2.3.2.3.2.3.2.3.2.3.2.3.2.3.2.3.2.3.2.3.2.3.2.3.2.3.2.3.2.3.2.3.2.3.2.3.2.3.2.3.2.4.2.3.2.3.2.3.2.4.2.3.2.4.2.4.2.3.2.4.2.4.2.3.2.4.2.4.2.4.2.4.2.3.2.4.2.4.2.4.2.4.2.3.2.4.2.4.2.3.2.4.2.3.2.4.2.3.2h.3c0,.1.3.3.3.3h.3c0,.1.3.3.3.3h.3c0,.1.3.3.3.3h.3c0,.1.3.3.3.3h.3c0,.1.3.3.3.3h.3c0,.1.3.3.3.3h.3c0,.1.3.3.3.3h.3c0,.1.3.3.3.3h.3c0,.1.3.3.3.3h.3c0,.1.3.3.3.3h.3c0,.1.3.2.3.2h.3c0,.1.3.2.3.2h.3c0,.1.3.2.3.2h.3c0,.1.3.2.3.2h.3c0,.1.3.2.3.2h.3c0,.1.3.2.3.2h.3c0,.1.3.2.3.2h.3c0,.1.3.2.3.2h.3c0,.1.3.2.3.2h.3c0,0,.3.2.3.2h.3c0,0,.3.2.3.2h.3c0,0,.3.2.3.2h.3c0,0,.3.2.3.2h.3c0,0,.3.2.3.2h.3c0,0,.3.2.3.2l.6.2.6.2.6.2h.6c0,.1.6.3.6.3h.6c0,.1.5.3.5.3h.5c0,.1.5.3.5.3h.5c0,.1.5.2.5.2h.5c0,.1.5.2.5.2h.5c0,.1.5.2.5.2h.5c0,0,.5.2.5.2h.5c0,0,.4.2.4.2h.4c0,0,.4.2.4.2h.4c0,0,.4.1.4.1h.4c0,0,.4.1.4.1h.4c0,0,.3.1.3.1h.3c0,0,.3.1.3.1h.3s.3,0,.3,0h.3s.3,0,.3,0h.2s.2,0,.2,0h.2s.2,0,.2,0h.2s.2,0,.2,0h.5c0,0,.5.1.5.1h.5s.5.1.5.1h.5s.5,0,.5,0h.5s.5,0,.5,0h.5s.5,0,.5,0h.5s.5,0,.5,0h.5s.5,0,.5,0h.5s.5,0,.5,0h.5s.5,0,.5,0h.5s.5,0,.5,0h.5s.5,0,.5,0h.5s.5,0,.5,0h.5s.5,0,.5,0h.5s.5,0,.5,0h.5s.5,0,.5,0h.5s.5,0,.5,0h.5s.5,0,.5,0h.5s.5,0,.5,0h.5s.5,0,.5,0h.5s.5,0,.5,0h.5s.5,0,.5,0h.5s.5,0,.5,0h.5s.5,0,.5,0h.5s.5,0,.5,0h.5s.5,0,.5,0h.5s.5,0,.5,0h.5s.5,0,.5,0h.5s.5,0,.5,0h.5s.5,0,.5,0h.5c0,0,.5-.1.5-.1h.5c0,0,.5-.1.5-.1h.5c0,0,.5-.1.5-.1h.5c0,0,.5-.1.5-.1h.5c0,0,.5-.1.5-.1h.5c0,0,.5-.1.5-.1h.5c0,0,.5-.1.5-.1h.5c0,0,.5-.1.5-.1h.5c0,0,.5-.2.5-.2h.5c0,0,.5-.2.5-.2h.5c0,0,.5-.2.5-.2h.5c0,0,.5-.2.5-.2h.5c0,0,.5-.2.5-.2h.5c0,0,.5-.2.5-.2h.5c0,0,.5-.2.5-.2h.5c0,0,.5-.2.5-.2h.5c0,0,.5-.2.5-.2h.5c0-.1.5-.2.5-.2h.5c0-.1.5-.2.5-.2h.5c0-.1.5-.2.5-.2h.5c0-.1.5-.2.5-.2h.5c0-.1.5-.2.5-.2h.5c0-.1.5-.2.5-.2h.5c0-.1.5-.2.5-.2h.5c0-.1.4-.2.4-.2h.4c0-.1.4-.3.4-.3h.4c0-.1.4-.3.4-.3h.4c0-.1.4-.3.4-.3h.4c0-.1.4-.3.4-.3h.4c0-.1.4-.3.4-.3h.4c0-.1.4-.3.4-.3h.4c0-.1.4-.3.4-.3h.4c0-.1.4-.3.4-.3h.4c0-.1.4-.3.4-.3h.4c0-.1.4-.3.4-.3l.4-.2.4-.2.4-.2.4-.2.4-.2.4-.2.4-.2.4-.2.4-.2.4-.2.4-.2.4-.2.4-.2.4-.2.4-.2.4-.2.4-.2.4-.2.4-.2.4-.2.4-.2.4-.2.4-.2.4-.2.4-.2.4-.2.4-.2.4-.2.4-.2.4-.2.4-.2.4-.2.4-.2.4-.2.3-.2.3-.2.3-.2.3-.2.3-.2.3-.2.3-.2.3-.2.3-.2.3-.2.3-.2.3-.2.3-.2.3-.2.3-.2.3-.2.3-.2.3-.2.3-.2.3-.2.3-.2.3-.2.3-.2.3-.2.3-.2.3-.2.3-.2.3-.2.3-.2.3-.2.3-.2.3-.2.3-.2.3-.2.3-.2.3-.2.3-.2.3-.2.3-.2.3-.2.3-.2.3-.2.3-.2.2-.2.2-.2.2-.2.2-.2.2-.2.2-.2.2-.2.2-.2.2-.2.2-.2.2-.2.2-.2.2-.2.2-.2.2-.2.2-.2.2-.2.2-.2.2-.2.2-.2.2-.2.2-.2.2-.2.2-.2.2-.2.2-.2.2-.2.2-.2.2-.2.2-.2.2-.2.2-.2.2-.2.2-.2.2-.2.2-.2.2-.2.2-.2v-.2c.1,0,.3-.2.3-.2v-.2c.1,0,.3-.2.3-.2v-.2c.1,0,.3-.2.3-.2v-.2c.1,0,.3-.2.3-.2v-.2c.1,0,.2-.2.2-.2v-.2c.1,0,.2-.2.2-.2v-.2c.1,0,.3-.3.3-.3v-.3c.1,0,.3-.3.3-.3v-.3c.1,0,.3-.3.3-.3v-.3c.1,0,.3-.3.3-.3v-.3c.1,0,.3-.3.3-.3v-.3c.1,0,.3-.3.3-.3v-.3c.1,0,.3-.3.3-.3v-.3c.1,0,.3-.3.3-.3v-.3c.1,0,.3-.3.3-.3v-.3c.1,0,.3-.3.3-.3v-.3c.1,0,.3-.3.3-.3v-.3c.1,0,.3-.3.3-.3v-.3c.1,0,.3-.3.3-.3v-.3c.1,0,.2-.3.2-.3v-.3c.1,0,.2-.3.2-.3v-.3c.1,0,.2-.3.2-.3v-.3c.1,0,.2-.3.2-.3v-.3c.1,0,.2-.3.2-.3v-.3c.1,0,.2-.3.2-.3v-.3c.1,0,.2-.3.2-.3v-.3c.1,0,.2-.3.2-.3v-.3c.1,0,.2-.3.2-.3v-.3c.1,0,.2-.3.2-.3v-.3c.1,0,.2-.3.2-.3v-.3c.1,0,.2-.3.2-.3v-.3c0,0,.2-.3.2-.3v-.3c0,0,.2-.3.2-.3v-.3c0,0,.2-.3.2-.3v-.3c0,0,.2-.3.2-.3v-.3c0,0,.2-.3.2-.3v-.3c0,0,.2-.3.2-.3v-.3c0,0,.2-.3.2-.3v-.3c0,0,.2-.3.2-.3v-.3c0,0,.2-.3.2-.3v-.3c0,0,.2-.3.2-.3v-.3c0,0,.2-.3.2-.3v-.3c0,0,.2-.3.2-.3v-.3c0,0,.2-.3.2-.3v-.3c0,0,.2-.3.2-.3v-.3c0,0,.1-.3.1-.3v-.3c0,0,.1-.3.1-.3v-.3c0,0,.1-.3.1-.3v-.3c0,0,.1-.3.1-.3v-.3c0,0,.1-.3.1-.3v-.3c0,0,.1-.3.1-.3v-.3c0,0,.1-.3.1-.3v-.3c0,0,.1-.3.1-.3v-.3c0,0,.1-.3.1-.3v-.3c0,0,.1-.3.1-.3v-.3c0,0,.1-.3.1-.3v-.3c0,0,.1-.3.1-.3v-.3c0,0,.1-.3.1-.3v-.3c0,0,.1-.3.1-.3v-.3s0-.3,0-.3v-.3s0-.3,0-.3v-.3s0-.3,0-.3v-.3s0-.3,0-.3v-.3s0-.3,0-.3v-.3s0-.3,0-.3v-.3s0-.3,0-.3v-.3s0-.3,0-.3v-.3s0-.3,0-.3v-.3s0-.3,0-.3v-.3s0-.3,0-.3v-.3s0-.3,0-.3v-.3s0-.3,0-.3v-.3s0-.3,0-.3v-.3s0-.3,0-.3v-.3s0-.3,0-.3v-.3s0-.3,0-.3v-.3s0-.3,0-.3v-.3s0-.3,0-.3v-.3s0-.3,0-.3v-.3s0-.3,0-.3v-.3s0-.3,0-.3v-.3s0-.3,0-.3v-.3s0-.3,0-.3v-.4s0-.3,0-.3v-.4s0-.4,0-.4v-.4s0-.4,0-.4v-.4s0-.4,0-.4v-.4s0-.4,0-.4v-.7s0-.4,0-.4v-1.8s0-.4,0-.4v-.4s0-.4,0-.4v-.4s0-.4,0-.4v-.7s0-.8,0-.8v-.8s0-.8,0-.8v-.8s0-.8,0-.8v-.8s0-.8,0-.8v-.8s0-.8,0-.8v-.8s0-.8,0-.8v-.8s-.1-.8-.1-.8v-.8c0,0-.1-.8-.1-.8v-.8c0,0-.1-.8-.1-.8v-.8c0,0-.1-.8-.1-.8v-.9c0,0-.1-.9-.1-.9v-.9c0,0-.2-.9-.2-.9v-.9c0,0-.2-.9-.2-.9v-.9c0,0-.2-.9-.2-.9v-.9c0,0-.2-.9-.2-.9v-.9c0,0-.2-.9-.2-.9v-.9c-.1,0-.2-.9-.2-.9v-.9c-.1,0-.2-1-.2-1v-1c-.1,0-.2-1-.2-1v-1c-.1,0-.2-1-.2-1v-.3s0-.3,0-.3v-.3s0-.3,0-.3v-.3s0-.3,0-.3v-.3s0-.3,0-.3v-.3s0-.3,0-.3v-.3s0-.3,0-.3v-.3s0-.3,0-.3v-.3s0-.3,0-.3v-.8s0-.3,0-.3v-.3s0-.3,0-.3v-.3s0-.3,0-.3v-.3s0-.3,0-.3v-.3s0-.3,0-.3v-.3s0-.3,0-.3v-.3s0-.3,0-.3v-.3s0-.3,0-.3v-.3s0-.3,0-.3v-.3s0-.3,0-.3v-.3s0-.3,0-.3v-.3s0-.3,0-.3v-.3s0-.3,0-.3v-.3s0-.3,0-.3v-.3s0-.3,0-.3v-.3s0-.3,0-.3v-.3s0-.3,0-.3v-.3s.1-.3.1-.3v-.3c0,0,.1-.3.1-.3v-.3c0,0,.1-.3.1-.3v-.3c0,0,.1-.3.1-.3v-.3c0,0,.1-.3.1-.3v-.3c0,0,.1-.3.1-.3v-.3c0,0,.1-.3.1-.3v-.3c0,0,.1-.3.1-.3v-.3c0,0,.1-.3.1-.3v-.3c0,0,.1-.3.1-.3v-.3c0,0,.1-.3.1-.3v-.3c0,0,.1-.3.1-.3v-.3c0,0,.2-.3.2-.3l.2-.6.2-.6.2-.6.2-.6.2-.6.2-.6.2-.6.2-.6.2-.6.2-.6.2-.6.2-.6.2-.6.2-.6.2-.6.2-.6.2-.6.2-.6.2-.6.2-.6.2-.6.2-.6.2-.6.2-.6.2-.6.2-.6.2-.6.4-1.2.4-1.2.4-1.2.4-1.2.4-1.2.8-2.4.4-1.2.4-1.2.4-1.2.2-.6.2-.6.2-.6.2-.6.2-.6.2-.6.2-.6.2-.6.2-.6.2-.6.2-.6.2-.6.2-.6.2-.6.2-.5.2-.5.2-.5.2-.5.2-.5.2-.5.2-.5v-.5c.1,0,.3-.5.3-.5v-.5c.1,0,.3-.5.3-.5v-.5c.1,0,.3-.5.3-.5v-.3c0,0,.1-.3.1-.3v-.3c0,0,.1-.2.1-.2v-.2c0,0,.1-.2.1-.2v-.2c0,0,.1-.2.1-.2v-.2c0,0,.1-.2.1-.2v-.2c0,0,.1-.2.1-.2v-.2s0-.2,0-.2v-.2s0-.2,0-.2v-.2s0-.2,0-.2v-.2s0-.2,0-.2v-.2s0-.2,0-.2v-.2s0-.2,0-.2v-.2s0-.2,0-.2v-.2s0-.2,0-.2v-.2s0-.2,0-.2v-.5c0,0,.1-.5.1-.5v-.5c0,0,.1-.5.1-.5v-.5c0,0,.1-.5.1-.5v-.5c0,0,.1-.5.1-.5v-.5c0,0,.1-.5.1-.5v-.5c0,0,.1-.5.1-.5v-.5c0,0,.1-.5.1-.5v-.5s0-.5,0-.5v-.5s0-.5,0-.5v-.5s0-.5,0-.5v-.5s0-.5,0-.5v-.5s0-.5,0-.5v-.5s0-.5,0-.5v-.5s0-.5,0-.5v-.5s0-.5,0-.5v-.5s0-.5,0-.5v-.5s0-.5,0-.5v-.5s0-.5,0-.5v-.5s0-.5,0-.5v-.5s0-.5,0-.5v-.5s0-.5,0-.5v-1.1s0-.5,0-.5v-.5s0-.5,0-.5v-.5s0-.5,0-.5v-.5s0-.5,0-.5v-.5s0-.5,0-.5v-.5s0-.5,0-.5v-.5s0-.5,0-.5v-.5s0-.5,0-.5v-.5s0-.5,0-.5v-.5s0-.5,0-.5v-.5s0-.5,0-.5v-.5s0-.5,0-.5v-.5s0-.5,0-.5v-.5s0-.5,0-.5v-.5s-.1-.5-.1-.5v-.5c0,0-.1-.5-.1-.5v-.5c0,0-.1-.5-.1-.5v-.5c0,0-.1-.5-.1-.5v-.5c0,0-.1-.5-.1-.5v-.5c0,0-.1-.5-.1-.5v-.5c0,0-.2-.5-.2-.5v-.5c0,0-.2-.5-.2-.5v-.5c0,0-.2-.5-.2-.5v-.5c0,0-.2-.5-.2-.5v-.5c0,0-.2-.5-.2-.5v-.5c0,0-.2-.5-.2-.5v-.5c-.1,0-.2-.5-.2-.5v-.5c-.1,0-.2-.5-.2-.5v-.5c-.1,0-.2-.5-.2-.5v-.5c-.1,0-.2-.5-.2-.5v-.5c-.1,0-.2-.5-.2-.5v-.5c-.1,0-.3-.5-.3-.5v-.5c-.1,0-.3-.5-.3-.5v-.5c-.1,0-.3-.5-.3-.5v-.5c-.1,0-.3-.5-.3-.5v-.5c-.1,0-.3-.5-.3-.5v-.5c-.1,0-.3-.5-.3-.5l-.2-.5-.2-.5-.2-.5-.2-.5-.2-.5-.2-.5-.2-.5-.2-.5-.2-.5-.2-.5-.2-.5-.2-.5-.2-.5-.2-.5-.2-.5-.2-.5-.2-.5-.2-.5-.2-.5-.2-.5-.2-.5-.2-.5-.2-.5-.2-.5-.2-.5-.2-.5-.2-.5-.2-.5-.2-.5-.2-.5-.2-.5-.2-.5-.2-.5-.2-.5-.2-.5-.2-.5v-.2c-.1,0-.2-.2-.2-.2v-.2c-.1,0-.2-.2-.2-.2v-.2c-.1,0-.2-.2-.2-.2v-.2c-.1,0-.2-.2-.2-.2v-.2c-.1,0-.2-.2-.2-.2v-.2c-.1,0-.3-.2-.3-.2v-.2c-.1,0-.3-.2-.3-.2v-.2c-.1,0-.3-.2-.3-.2v-.2c-.1,0-.3-.2-.3-.2v-.2c-.1,0-.3-.2-.3-.2v-.2c-.1,0-.3-.2-.3-.2v-.2c-.1,0-.3-.2-.3-.2v-.2c-.1,0-.3-.2-.3-.2v-.2c-.1,0-.3-.2-.3-.2v-.2c-.1,0-.3-.2-.3-.2v-.2c-.1,0-.3-.2-.3-.2v-.2c-.1,0-.3-.2-.3-.2v-.2c-.1,0-.3-.2-.3-.2v-.2c-.1,0-.3-.2-.3-.2v-.2c-.1,0-.3-.2-.3-.2v-.2c-.1,0-.3-.2-.3-.2v-.2c-.1,0-.3-.2-.3-.2v-.2c-.1,0-.3-.2-.3-.2v-.2c-.1,0-.3-.2-.3-.2v-.2c-.1,0-.3-.2-.3-.2l-.2-.2-.2-.2-.2-.2-.2-.2-.2-.2-.2-.2-.2-.2-.2-.2-.2-.2-.2-.2-.2-.2-.2-.2-.2-.2-.2-.2-.2-.2-.2-.2-.2-.2-.2-.2-.2-.2-.2-.2-.2-.2-.2-.2-.2-.2-.2-.2-.2-.2-.2-.2-.2-.2-.2-.2-.2-.2-.2-.2-.2-.2-.2-.2-.2-.2-.2-.2-.2-.2-.2-.2-.2-.2-.2-.2-.2-.2-.2-.2-.2-.2-.2-.2-.2-.2-.2-.2-.2-.2-.2-.2-.2-.2-.2-.2-.2-.2-.2-.2-.2-.2-.2-.2-.2-.2-.2-.2-.2-.2-.2-.2-.2-.2-.2-.2-.2-.2-.2-.2-.2-.2-.2-.2-.2-.2-.2-.2-.2-.2-.2-.2-.2-.2-.2-.2-.2-.2-.2-.2-.2-.2-.2-.2-.2-.2-.2-.2-.2-.2-.2-.2-.2-.2-.2-.2-.2-.2-.2-.2-.2-.2-.2-.2-.2-.2-.2-.2-.2-.2-.2-.2-.2-.2-.2-.2-.2-.2-.2-.2-.2-.2-.2-.2-.2-.2-.2-.2-.2-.2-.2-.2-.2-.2-.2-.2-.2-.2-.2-.2-.2-.2-.2-.2-.2-.2-.2-.2-.2-.2-.2-.2-.2-.2-.2-.2-.2-.2-.2-.2-.2-.2-.2-.2-.2-.2-.2-.2-.2-.2-.2-.2-.2-.2-.2-.2-.2-.2-.2-.2-.2-.2-.2-.2-.2-.2-.2-.2-.2-.2-.2-.2-.2-.2-.2-.2-.2-.2-.3-.2-.2-.2-.3-.2-.3-.2-.3-.2-.3-.2-.3-.2-.3-.2-.3-.2-.3-.2-.3-.2-.3-.2-.3-.2-.3-.2h-.3c0-.1-.3-.3-.3-.3l-.3-.2h-.3c0-.1-.3-.3-.3-.3h-.3c0-.1-.3-.3-.3-.3h-.3c0-.1-.3-.3-.3-.3h-.3c0-.1-.3-.3-.3-.3h-.3c0-.1-.3-.3-.3-.3l-.6-.3-.6-.3-.6-.3-.6-.3-.6-.3-.6-.3-.6-.3-.6-.3-.6-.3-.6-.3-.6-.3-.6-.3-.6-.3-.6-.3-.6-.3-.6-.3-.6-.3-.6-.3-.6-.3-.6-.3-.6-.3-.6-.3-.6-.3-.7-.3-.7-.3-.7-.3h-.3c0-.1-.3-.3-.3-.3h-.3c0-.1-.3-.3-.3-.3h-.3c0-.1-.3-.3-.3-.3h-.3c0-.1-.3-.3-.3-.3h-.3c0-.1-.3-.3-.3-.3h-.3c0-.1-.3-.3-.3-.3h-.3c0-.1-.3-.3-.3-.3h-.3c0-.1-.3-.3-.3-.3h-.3c0-.1-.3-.3-.3-.3h-.3c0-.1-.3-.3-.3-.3h-.3c0-.1-.3-.3-.3-.3h-.3c0-.1-.3-.3-.3-.3h-.3c0-.1-.3-.2-.3-.2h-.3c0-.1-.3-.2-.3-.2h-.3c0-.1-.3-.2-.3-.2h-.3c0-.1-.3-.2-.3-.2h-.3c0-.1-.3-.2-.3-.2h-.3c0-.1-.3-.2-.3-.2h-.3c0-.1-.3-.2-.3-.2h-.3c0-.1-.3-.2-.3-.2h-.3c0-.1-.3-.2-.3-.2h-.3c0-.1-.3-.2-.3-.2h-.3c0-.1-.3-.2-.3-.2h-.3c0-.1-.3-.2-.3-.2h-.3c0-.1-.3-.2-.3-.2h-.3c0,0-.3-.2-.3-.2h-.3c0,0-.3-.2-.3-.2h-.3c0,0-.3-.2-.3-.2h-.3c0,0-.3-.2-.3-.2h-.3c0,0-.3-.2-.3-.2h-.3c0,0-.3-.2-.3-.2h-.3c0,0-.3-.2-.3-.2h-.3c0,0-.3-.2-.3-.2h-.3c0,0-.3-.2-.3-.2h-.3c0,0-.3-.2-.3-.2h-.3c0,0-.3-.1-.3-.1h-.3c0,0-.3-.1-.3-.1h-.4c0,0-.3-.1-.3-.1h-.4c0,0-.4-.2-.4-.2h-.4c0,0-.4-.2-.4-.2h-.4c0,0-.4-.1-.4-.1h-.4c0,0-.4-.1-.4-.1h-.4c0,0-.4-.1-.4-.1h-.4c0,0-.4-.1-.4-.1h-.4c0,0-.4-.1-.4-.1h-.4c0,0-.4-.1-.4-.1h-.4s-.4,0-.4,0h-.4s-.4,0-.4,0h-.4s-.4,0-.4,0h-.4s-.4,0-.4,0h-.4s-.4,0-.4,0h-.4s-.4,0-.4,0h-.5s-.4,0-.4,0h-.5s-.4,0-.4,0h-.5s-.5,0-.5,0h-.4s-.5,0-.5,0h-.5s-.5,0-.5,0h-.5s-.5,0-.5,0h-.5s-.5,0-.5,0h0Z"/>
          <path class="cls-15" d="M285.1,419.6c-81.8,19-96.1-28.7-98.9-39.1-5.3-19.5-7.9-57.4-3.1-77.6,1.6-7,4.8-15,10.1-20.7,11.7-12.7,64-13.8,83.5-10.8,7.8,1.2,14.9,3.9,21.9,6.9,24.3,10.3,32.9,130.5-13.5,141.3h0Z"/>
          <circle class="cls-22" cx="164.8" cy="210.8" r="3.4"/>
          <circle class="cls-22" cx="334.2" cy="217" r="3.4"/>
          <g>
            <path class="cls-16" d="M227.4,229.5c.7,5.1.2,14.5,2.7,18.8,1.2,2.1,4.3,2.5,6.3,2.7,11.6,1.4,10.9-10.8,13.6-21"/>
            <path class="cls-19" d="M227.6,226.4h.2s.2,0,.2,0h.2s.2,0,.2,0h.2s.2.1.2.1h.2c0,0,.1.1.1.1h.1c0,0,.1.2.1.2h.1c0,0,.1.2.1.2h.1c0,.1.1.2.1.2h.1c0,.1.1.2.1.2h0c0,.1,0,.3,0,.3h0c0,.1,0,.3,0,.3h0c0,.1,0,.3,0,.3v.2c0,0,0,.2,0,.2v.2s0,.2,0,.2v.3s0,.3,0,.3v.3s0,.3,0,.3v.3s0,.3,0,.3v.3s0,.3,0,.3v.3s0,.3,0,.3v.3s0,.3,0,.3v.3s0,.3,0,.3v.6s0,.6,0,.6v.6s0,.6,0,.6v.6s0,.6,0,.6v.3s0,.3,0,.3v.3s0,.3,0,.3v.3s0,.3,0,.3v.3s0,.3,0,.3v.3s0,.3,0,.3v.3s0,.3,0,.3v.3s0,.3,0,.3v.3s0,.3,0,.3v.3s0,.3,0,.3h0c0,.1,0,.3,0,.3h0c0,.1,0,.3,0,.3h0c0,.1,0,.3,0,.3h0c0,.1,0,.3,0,.3h0c0,.1,0,.3,0,.3h0c0,.1,0,.2,0,.2h0c0,.1,0,.2,0,.2h0c0,.1,0,.2,0,.2h0c0,.1,0,.2,0,.2h0c0,.1,0,.2,0,.2h0c0,.1,0,.2,0,.2h0c0,.1,0,.2,0,.2h0c0,0,0,.2,0,.2h0c0,0,0,.2,0,.2h0c0,0,0,.2,0,.2h0c0,0,0,.2,0,.2h0c0,0,0,.2,0,.2h0c0,0,0,.1,0,.1h0c0,0,0,.1,0,.1h0c0,0,0,.1,0,.1h0s0,0,0,0h0s0,0,0,0h0s0,0,0,0h0s0,0,0,0h0s0,0,0,0h0s0,0,0,0h0s0,0,0,0h0s0,0,0,0h0s0,0,0,0h0s0,0,0,0h0s0,0,0,0h0s0,0,0,0h0s0,0,0,0h0s0,0,0,0h0s0,0,0,0h0s0,0,0,0h0s0,0,0,0h0s0,0,0,0h0s0,0,0,0h0s0,0,0,0h0s0,0,0,0h0s0,0,0,0h0s0,0,0,0h0s0,0,0,0h0s0,0,0,0h0s0,0,0,0h0s0,0,0,0h0s0,0,0,0h.2s.2,0,.2,0h.2s.2,0,.2,0h.2s.2,0,.2,0h.2s.4,0,.4,0h.1s.1,0,.1,0h.1s.1,0,.1,0h.1s.1,0,.1,0h.1s0,0,0,0h0s0,0,0,0h.2s0,0,0,0h.4s0,0,0,0h0s0,0,0,0h0s0,0,0,0h0s0,0,0,0h0s0,0,0,0h0s0,0,0,0h0s0,0,0,0h0s0,0,0,0h0s0,0,0,0h0s0,0,0,0h0s0,0,0,0h0s0,0,0,0h0s0,0,0,0h0s0,0,0,0h0s0,0,0,0h0s0,0,0,0h0s0,0,0,0h0s0,0,0,0h0s0,0,0,0h0s0,0,0,0h0s0,0,0,0h0s0,0,0,0h0s0,0,0,0h0s0,0,0,0h0s0,0,0,0h0s0,0,0,0h0s0,0,0,0h0s0,0,0,0h0s0,0,0,0h0s0,0,0,0h0s0,0,0,0h0s0,0,0,0h0s0,0,0,0h0s0,0,0,0h0s0,0,0,0h0s0,0,0,0h0s0,0,0,0h0s0,0,0,0h0s0-.1,0-.1h0s0-.1,0-.1h0c0,0,0-.1,0-.1h0c0,0,0-.1,0-.1h0c0,0,0-.1,0-.1h0c0,0,0-.1,0-.1h0c0,0,0-.1,0-.1h0c0,0,0-.1,0-.1h0c0,0,0-.1,0-.1h0c0-.1,0-.3,0-.3h0c0-.1,0-.3,0-.3h0c0-.1,0-.3,0-.3v-.2c0,0,.1-.2.1-.2v-.2c0,0,.1-.2.1-.2v-.2c0,0,.1-.2.1-.2v-.2c0,0,.1-.2.1-.2v-.2c0,0,.1-.2.1-.2v-.2c0,0,.1-.2.1-.2v-.2c0,0,.1-.2.1-.2v-.2c0,0,.1-.2.1-.2v-.2c0,0,.1-.2.1-.2v-.2c0,0,.1-.2.1-.2v-.2s0-.2,0-.2v-.2s0-.2,0-.2v-.2s0-.2,0-.2v-.2s.1-.5.1-.5v-.5c0,0,.2-.5.2-.5v-.5c0,0,.2-.5.2-.5v-.5c0,0,.3-1,.3-1v-.5c0,0,.2-.5.2-.5v-.5c0,0,.2-.5.2-.5v-.5c.1,0,.2-.5.2-.5v-.3c0,0,.1-.3.1-.3v-.3c0,0,.1-.3.1-.3v-.3c0,0,.1-.3.1-.3v-.3c0,0,.1-.3.1-.3v-.3c0,0,.1-.3.1-.3v-.3c0,0,.1-.2.1-.2v-.2s0-.2,0-.2v-.2c0,0,.1-.1.1-.1h0c0-.1,0-.3,0-.3h0c0-.1.1-.3.1-.3h.1c0-.1.1-.2.1-.2h.1c0-.1.1-.2.1-.2h.1c0,0,.1-.2.1-.2h.1c0,0,.1-.2.1-.2h.1c0,0,.2-.1.2-.1h.2c0,0,.2,0,.2,0h.2s.2,0,.2,0h.2s.2,0,.2,0h.2s.2,0,.2,0h.2s.2,0,.2,0h.2s.2,0,.2,0h.2s.2.1.2.1h.2c0,0,.1.1.1.1h.1c0,0,.1.2.1.2h.1c0,0,.1.2.1.2h.1c0,.1.1.2.1.2h.1c0,.1.1.3.1.3h0c0,.1,0,.3,0,.3h0c0,.1,0,.3,0,.3h0c0,.1,0,.3,0,.3v.2s0,.2,0,.2v.2s0,.2,0,.2v.2s0,.2,0,.2v.2s0,.2,0,.2v.2s0,.2,0,.2v.2s0,.2,0,.2v.2c0,0-.1.2-.1.2v.2c0,0-.1.2-.1.2v.2c0,0-.1.2-.1.2v.2s-.1.2-.1.2v.2s0,.2,0,.2v.2s-.1.5-.1.5v.5c0,0-.2.5-.2.5v.5c0,0-.2.5-.2.5v.5c0,0-.3,1-.3,1v.5c0,0-.2.5-.2.5v.5c0,0-.2.5-.2.5v.5c0,0-.2.5-.2.5v.2c0,0-.1.2-.1.2v.2s-.1.2-.1.2v.2c0,0-.1.2-.1.2v.2c0,0-.1.2-.1.2v.2c0,0-.1.2-.1.2v.2c0,0-.1.2-.1.2v.2c0,0-.1.2-.1.2v.2c0,0-.1.2-.1.2v.2c0,0-.1.2-.1.2v.2c0,0-.2.2-.2.2v.2c0,0-.2.2-.2.2v.2c0,0-.2.2-.2.2v.2c0,0-.2.2-.2.2v.2c0,0-.2.2-.2.2v.2c0,0-.2.2-.2.2v.2c-.1,0-.2.2-.2.2v.2c-.1,0-.2.1-.2.1h0c0,.1,0,.2,0,.2h0c0,.1,0,.2,0,.2h0c0,.1,0,.2,0,.2h0c0,.1,0,.2,0,.2h0c0,.1,0,.2,0,.2h0c0,0,0,.2,0,.2h0c0,.1,0,.2,0,.2h0c0,.1,0,.2,0,.2h0c0,0,0,.2,0,.2h0c0,0,0,.2,0,.2h0c0,0,0,.2,0,.2h0c0,0,0,.2,0,.2h0c0,0,0,.2,0,.2h0c0,0,0,.2,0,.2h0c0,0,0,.2,0,.2h0c0,0,0,.2,0,.2h0c0,0,0,.2,0,.2h0c0,0,0,.2,0,.2h0c0,0,0,.2,0,.2h0c0,0-.1.2-.1.2h-.1c0,0-.1.2-.1.2h-.1c0,0-.1.2-.1.2h-.1c0,0-.1.1-.1.1h-.1c0,0-.1.1-.1.1h-.1c0,0-.1.1-.1.1h-.1c0,0-.1.1-.1.1h-.1c0,0-.1.1-.1.1h-.1c0,0-.1.1-.1.1h-.1c0,0-.1.1-.1.1h-.1c0,0-.1.1-.1.1h-.1c0,0-.1.1-.1.1h-.1s-.1,0-.1,0h-.1s-.1,0-.1,0h-.1s-.1,0-.1,0h-.1s-.1,0-.1,0h-.1s-.1,0-.1,0h-.1s-.1,0-.1,0h-.1s-.1,0-.1,0h-.1s-.1,0-.1,0h-.1s-.1,0-.1,0h-.1s-.1,0-.1,0h-.1s-.1,0-.1,0h-.1s-.1,0-.1,0h-.1s-.1,0-.1,0h-.1s-.1,0-.1,0h-.1s-.1,0-.1,0h-.1s-.1,0-.1,0h-.5s-.2,0-.2,0h-.2s-.2,0-.2,0h-.2s-.2,0-.2,0h-.2s-.2,0-.2,0h-.2s-.2,0-.2,0h-.2s-.2,0-.2,0h-.2s-.4,0-.4,0h-.2s-.2,0-.2,0h-.2s-.2,0-.2,0h-.3s-.3,0-.3,0h-.3s-.1,0-.1,0h-.1s-.1,0-.1,0h-.1s-.1,0-.1,0h-.1s-.1,0-.1,0h-.1s-.1,0-.1,0h-.1s-.1,0-.1,0h-.1s-.1,0-.1,0h-.1s-.1,0-.1,0h-.1c0,0-.1-.1-.1-.1h-.2c0,0-.1-.1-.1-.1h-.2c0,0-.2-.1-.2-.1h-.1c0,0-.2-.1-.2-.1h-.2c0,0-.2-.2-.2-.2h-.2c0,0-.2-.2-.2-.2h-.2c0,0-.1-.2-.1-.2h-.2c0-.1-.1-.2-.1-.2h-.2c0-.1-.1-.2-.1-.2h-.1c0-.1-.1-.2-.1-.2h0c0,0,0-.1,0-.1h0c0,0,0-.1,0-.1h0c0,0,0-.1,0-.1h0c0,0,0-.1,0-.1h0c0,0,0-.1,0-.1h0c0,0,0-.2,0-.2h0c0,0,0-.2,0-.2h0c0,0,0-.2,0-.2h0c0,0,0-.2,0-.2h0c0,0,0-.2,0-.2h0c0,0,0-.2,0-.2h0c0-.1,0-.3,0-.3h0c0-.1,0-.3,0-.3v-.2c0,0-.1-.1-.1-.1h0c0-.1,0-.3,0-.3v-.2c0,0-.1-.2-.1-.2v-.2c0,0-.1-.2-.1-.2v-.2c0,0-.1-.2-.1-.2v-.2c0,0-.1-.2-.1-.2v-.2s0-.2,0-.2v-.2s0-.2,0-.2v-.2s0-.2,0-.2v-.2s0-.2,0-.2v-.2s0-.2,0-.2v-.2s0-.2,0-.2v-.2s0-.2,0-.2v-.2s0-.2,0-.2v-.2s0-.2,0-.2v-.2s0-.2,0-.2v-.2s0-.2,0-.2v-.2s0-.2,0-.2v-.3s0-.3,0-.3v-.3s0-.3,0-.3v-.3s0-.3,0-.3v-.3s0-.3,0-.3v-.3s0-.3,0-.3v-.3s0-.3,0-.3v-.3s0-.3,0-.3v-.3s0-.3,0-.3v-.3s0-.3,0-.3v-.7s0-.7,0-.7v-.6s0-.6,0-.6v-.6s0-.6,0-.6v-.3s0-.3,0-.3v-.3s0-.3,0-.3v-.3s0-.3,0-.3v-.3s0-.3,0-.3v-.2s0-.2,0-.2v-.2s0-.2,0-.2v-.2s0-.2,0-.2v-.2s0-.2,0-.2v-.3s0-.2,0-.2v-.2s0-.2,0-.2v-.2s0-.2,0-.2v-.2c0,0,.1-.2.1-.2h0c0-.1,0-.3,0-.3h0c0-.1,0-.3,0-.3h.1c0-.1.1-.3.1-.3h.1c0-.1.1-.2.1-.2h.1c0-.1.1-.2.1-.2h.1c0,0,.1-.2.1-.2h.1c0,0,.2-.1.2-.1h.2c0,0,.2-.1.2-.1h.2s.2,0,.2,0h.2s.2,0,.2,0h.2s.2,0,.2,0h0Z"/>
            <path class="cls-19" d="M241.3,193c9.5.6,16.8,5.9,16.5,11.9-.4,6-8.4,10.4-17.8,9.8-9.5-.6-16.8-5.9-16.5-11.9.4-6,8.4-10.4,17.8-9.8Z"/>
            <path class="cls-19" d="M239.8,208.4h.1s.1,0,.1,0h.1s.1,0,.1,0h.1s.1,0,.1,0h.1s.1,0,.1,0h.1c0,0,.1.1.1.1h.1c0,0,.1.1.1.1h.1c0,0,.1.2.1.2h.1c0,0,.1.2.1.2h0c0,0,0,.2,0,.2h0c0,.1,0,.2,0,.2h0c0,.1,0,.2,0,.2h0c0,.1,0,.2,0,.2h0c0,.1,0,.3,0,.3h0c0,.1,0,.3,0,.3h0c0,.1,0,.3,0,.3h0c0,.1,0,.3,0,.3h0c0,.1,0,.3,0,.3h0c0,.1,0,.4,0,.4v.3s0,.3,0,.3v.3s0,.3,0,.3v.3s0,.3,0,.3v.3s0,.3,0,.3v.3s0,.3,0,.3v.3s0,.2,0,.2v.3s0,.5,0,.5v.5s0,.5,0,.5v.5s0,.5,0,.5v.5s0,.5,0,.5v.5s-.1.5-.1.5v1c-.1,0-.2,1-.2,1v1c-.1,0-.2.5-.2.5v.5c0,0-.1.5-.1.5v.5s0,.5,0,.5v.5s0,.5,0,.5v.5s0,.5,0,.5v.5s0,.1,0,.1h0c0,.1,0,.3,0,.3h0c0,.1,0,.3,0,.3h0c0,.1,0,.3,0,.3h0c0,.1,0,.2,0,.2h0c0,.1,0,.2,0,.2h0c0,.1,0,.2,0,.2h0c0,.1,0,.2,0,.2h0c0,0,0,.2,0,.2h-.1c0,0-.1.2-.1.2h-.1c0,0-.1.2-.1.2h-.1c0,0-.1.1-.1.1h-.1c0,0-.1.1-.1.1h-.1s-.1,0-.1,0h-.1s-.1,0-.1,0h-.1s-.1,0-.1,0h-.1s-.1,0-.1,0h-.1s-.1,0-.1,0h-.1s-.1,0-.1,0h-.1s-.1,0-.1,0h-.1s-.1,0-.1,0h-.1s-.1,0-.1,0h-.1c0,0-.1-.1-.1-.1h-.1c0,0-.1-.1-.1-.1h-.1c0,0-.1-.2-.1-.2h-.1c0,0-.1-.2-.1-.2h0c0,0,0-.2,0-.2h0c0-.1,0-.2,0-.2h0c0-.1,0-.2,0-.2h0c0-.1,0-.2,0-.2h0c0-.1,0-.3,0-.3h0c0-.1,0-.3,0-.3h0c0-.1,0-.3,0-.3h0c0-.1,0-.3,0-.3h0c0-.1,0-.3,0-.3h0c0-.1,0-.3,0-.3v-.5s0-.5,0-.5v-.5s0-.5,0-.5v-.5s0-.5,0-.5v-.5s.1-.5.1-.5v-.5s.1-.5.1-.5v-1c.1,0,.2-.9.2-.9v-.9c.1,0,.2-.5.2-.5v-.5s0-.5,0-.5v-.5s0-.5,0-.5v-.5s0-.5,0-.5v-.5s0-.5,0-.5v-.2s0-.2,0-.2v-.2s0-.2,0-.2v-.2s0-.2,0-.2v-.2s0-.2,0-.2v-.2s0-.2,0-.2v-.2s0-.2,0-.2v-.2s0-.2,0-.2h0c0-.1,0-.3,0-.3h0c0-.1,0-.3,0-.3h0c0-.1,0-.3,0-.3h0c0-.1,0-.3,0-.3h0c0-.1,0-.2,0-.2h0c0-.1,0-.2,0-.2h0c0-.1,0-.2,0-.2h0c0-.1,0-.2,0-.2h0c0,0,0-.2,0-.2h.1c0,0,.1-.2.1-.2h.1c0,0,.1-.2.1-.2h.1c0,0,.1-.1.1-.1h.1c0,0,.1-.1.1-.1h.1c0,0,.1,0,.1,0h.1s.1,0,.1,0h.1s.1,0,.1,0h.1s.1,0,.1,0h.1s.1,0,.1,0Z"/>
            <path class="cls-19" d="M205.4,212.2h.3s.3,0,.3,0h.3c0,0,.3.2.3.2h.3c0,.1.2.3.2.3l.2.2.2.2.2.2.2.2.2.2.2.2.2.2.2.2.2.2.2.2.2.2.2.2.2.2.2.2.2.2.2.2.2.2.2.2.2.2.2.2.2.2.2.2.2.2.2.2.2.2.2.2.2.2.2.2.2.2.2.2.2.2.2.2.2.2.2.2.2.2.2.2.2.2.2.2.2.2.2.2.2.2h.2c0,.1.2.3.2.3h.2c0,.1.2.3.2.3h.2c0,.1.2.3.2.3h.2c0,.1.2.3.2.3h.2c0,.1.2.3.2.3h.2c0,.1.2.3.2.3h.2c0,.1.2.3.2.3h.2c0,.1.2.3.2.3h.2c0,.1.2.2.2.2h.2c0,.1.2.2.2.2h.2c0,.1.2.2.2.2h.2c0,.1.2.2.2.2h.2c0,.1.2.2.2.2h.2c0,.1.2.2.2.2h.2c0,.1.2.2.2.2h.2c0,.1.2.2.2.2h.2c0,.1.2.2.2.2h.2c0,0,.2.2.2.2h.2c0,0,.2.2.2.2h.2c0,0,.2.2.2.2h.2c0,0,.2.2.2.2h.2c0,0,.2.2.2.2h.2c0,0,.2.2.2.2h.2c0,0,.2.2.2.2h.2c0,0,.2.2.2.2h.2c0,0,.2.1.2.1h.2c0,0,.2.1.2.1h.2c0,0,.2.1.2.1h.2c0,0,.2.1.2.1h.2c0,0,.2.1.2.1h.2c0,0,.3.1.3.1h.2c0,0,.2.1.2.1h.2c0,0,.2.1.2.1h.3s.2,0,.2,0h.2s.3,0,.3,0h.2s.2,0,.2,0h.3s.2,0,.2,0h.2s.3,0,.3,0h.2s.3,0,.3,0h.2s.3,0,.3,0h.2s.3,0,.3,0h.2s.3,0,.3,0h.2s.3,0,.3,0h.3s.2,0,.2,0h.3s.3,0,.3,0h.2s.3,0,.3,0h.3s.3,0,.3,0h.3s.3,0,.3,0h.3s.3,0,.3,0h.8s.3,0,.3,0h.3s.3,0,.3,0h.3s.3,0,.3,0h.3s.3,0,.3,0h.3s.3,0,.3,0h.3s.3,0,.3,0h.3s.3,0,.3,0h.3s.3,0,.3,0h.3s.3,0,.3,0h.3s.3,0,.3,0h.3s.3,0,.3,0h.3s.3,0,.3,0h.3s.3,0,.3,0h.3s.3,0,.3,0h.3s.3,0,.3,0h.3s.3,0,.3,0h.3s.3-.1.3-.1h.3c0,0,.3-.1.3-.1h.3c0,0,.3-.1.3-.1h.3c0,0,.3-.1.3-.1h.3c0,0,.3-.1.3-.1h.3c0,0,.3-.1.3-.1h.3c0,0,.3-.1.3-.1h.3c0,0,.3-.1.3-.1h.3c0,0,.3-.2.3-.2h.3c0,0,.3-.2.3-.2h.3c0,0,.3-.2.3-.2h.3c0,0,.3-.2.3-.2h.3c0,0,.3-.2.3-.2h.3c0,0,.3-.2.3-.2h.3c0,0,.3-.2.3-.2h.3c0,0,.3-.2.3-.2h.3c0,0,.3-.2.3-.2h.3c0-.1.3-.2.3-.2h.3c0-.1.3-.2.3-.2h.3c0-.1.3-.2.3-.2h.3c0-.1.3-.2.3-.2h.3c0-.1.3-.2.3-.2h.3c0-.1.3-.2.3-.2h.3c0-.1.3-.2.3-.2h.3c0-.1.3-.3.3-.3h.3c0-.1.3-.3.3-.3h.3c0-.1.3-.3.3-.3h.3c0-.1.3-.3.3-.3h.3c0-.1.3-.3.3-.3h.3c0-.1.3-.3.3-.3h.3c0-.1.3-.3.3-.3h.3c0-.1.3-.3.3-.3l.3-.2.3-.2.3-.2.3-.2.3-.2.3-.2.3-.2.3-.2.3-.2.3-.2.3-.2.3-.2.3-.2.3-.2.3-.2.3-.2.3-.2.3-.2.3-.2.3-.2h.2c0-.1.3-.3.3-.3h.3c0,0,.3-.2.3-.2h.3s.3,0,.3,0h.3s.3,0,.3,0h.3c0,0,.3.1.3.1h.3c0,.1.3.2.3.2l.2.2.2.2.2.2.2.2.2.2v.2c.1,0,.3.3.3.3v.3c.1,0,.2.3.2.3v.3s0,.3,0,.3v.6s0,.3,0,.3v.3c0,0-.2.3-.2.3v.3c-.1,0-.3.2-.3.2l-.2.2-.2.2-.2.2-.2.2-.3.2-.3.2-.3.2-.3.2-.3.2-.3.2-.3.2-.3.2-.3.2-.3.2-.3.2-.3.2-.3.2-.3.2-.3.2-.3.2-.3.2-.3.2-.3.2-.3.2-.3.2-.3.2-.3.2-.3.2-.3.2-.3.2-.3.2-.3.2h-.3c0,.1-.3.3-.3.3h-.3c0,.1-.3.3-.3.3h-.3c0,.1-.3.3-.3.3h-.3c0,.1-.3.3-.3.3h-.3c0,.1-.3.3-.3.3h-.3c0,.1-.3.3-.3.3h-.3c0,.1-.3.3-.3.3h-.3c0,.1-.3.2-.3.2h-.3c0,.1-.3.2-.3.2h-.3c0,.1-.3.2-.3.2h-.3c0,.1-.3.2-.3.2h-.3c0,.1-.3.2-.3.2h-.3c0,.1-.3.2-.3.2h-.3c0,.1-.3.2-.3.2h-.3c0,.1-.3.2-.3.2h-.3c0,.1-.3.2-.3.2h-.3c0,0-.3.2-.3.2h-.3c0,0-.3.2-.3.2h-.3c0,0-.3.2-.3.2h-.3c0,0-.3.2-.3.2h-.3c0,0-.3.2-.3.2h-.3c0,0-.3.2-.3.2h-.3c0,0-.3.1-.3.1h-.3c0,0-.3.1-.3.1h-.3c0,0-.3.1-.3.1h-.3c0,0-.3.1-.3.1h-.3c0,0-.3.1-.3.1h-.3c0,0-.3.1-.3.1h-.3c0,0-.3.1-.3.1h-.3c0,0-.3.1-.3.1h-.3s-.3,0-.3,0h-.3s-.3,0-.3,0h-.3s-.3,0-.3,0h-.3s-.3,0-.3,0h-.3s-.3,0-.3,0h-.3s-.3,0-.3,0h-.3s-.3,0-.3,0h-.3s-.3,0-.3,0h-.3s-.3,0-.3,0h-.3s-.3,0-.3,0h-.3s-.3,0-.3,0h-.3s-.3,0-.3,0h-.3s-.3,0-.3,0h-.3s-.3,0-.3,0h-.9s-.3,0-.3,0h-.3s-.3,0-.3,0h-.3s-.3,0-.3,0h-.3s-.3,0-.3,0h-.3s-.3,0-.3,0h-.3s-.3,0-.3,0h-.3s-.3,0-.3,0h-.3s-.3,0-.3,0h-.3s-.3,0-.3,0h-.3s-.3,0-.3,0h-.3s-.3,0-.3,0h-.3s-.3,0-.3,0h-.3s-.3,0-.3,0h-.3s-.3,0-.3,0h-.3c0,0-.3-.1-.3-.1h-.3c0,0-.3-.1-.3-.1h-.3c0,0-.3-.1-.3-.1h-.3c0,0-.3-.1-.3-.1h-.3c0,0-.3-.1-.3-.1h-.3c0,0-.3-.1-.3-.1h-.3c0,0-.3-.1-.3-.1h-.3c0,0-.3-.2-.3-.2h-.3c0,0-.3-.2-.3-.2h-.3c0,0-.3-.2-.3-.2h-.3c0,0-.3-.2-.3-.2h-.3c0,0-.3-.2-.3-.2h-.3c0,0-.3-.2-.3-.2h-.3c0,0-.3-.2-.3-.2h-.3c0,0-.3-.2-.3-.2h-.3c0-.1-.3-.2-.3-.2h-.3c0-.1-.3-.2-.3-.2h-.3c0-.1-.3-.2-.3-.2h-.3c0-.1-.3-.2-.3-.2h-.3c0-.1-.3-.2-.3-.2h-.3c0-.1-.3-.2-.3-.2h-.3c0-.1-.3-.2-.3-.2h-.3c0-.1-.3-.3-.3-.3h-.3c0-.1-.3-.3-.3-.3h-.3c0-.1-.3-.3-.3-.3h-.3c0-.1-.3-.3-.3-.3h-.3c0-.1-.3-.3-.3-.3h-.3c0-.1-.3-.3-.3-.3h-.3c0-.1-.3-.3-.3-.3h-.3c0-.1-.3-.3-.3-.3l-.3-.2-.3-.2-.3-.2-.3-.2-.3-.2-.3-.2-.3-.2-.3-.2-.3-.2-.3-.2-.3-.2-.3-.2-.3-.2-.3-.2-.3-.2-.3-.2-.3-.2-.3-.2-.3-.2-.3-.2-.3-.2-.3-.2-.3-.2-.3-.2-.3-.2-.3-.2-.3-.2-.3-.2-.3-.2-.3-.2-.3-.2-.3-.2-.3-.2-.3-.2-.3-.2-.3-.2-.3-.2-.3-.2-.3-.2-.3-.2-.3-.2-.3-.2-.3-.2-.3-.2-.3-.2-.3-.2-.3-.2-.3-.2-.3-.2-.3-.2-.2-.2-.2-.2-.2-.2v-.2c-.1,0-.3-.3-.3-.3v-.3c0,0-.2-.3-.2-.3v-.3s0-.3,0-.3v-.3s0-.3,0-.3v-.3c0,0,.1-.3.1-.3v-.3c.1,0,.2-.3.2-.3l.2-.2.2-.2.2-.2.2-.2.2-.2h.2c0-.1.3-.3.3-.3h.3c0,0,.3-.2.3-.2h.3s.3,0,.3,0h.3s0,0,0,0Z"/>
            <path class="cls-15" d="M217.6,119.2c3.6-1.1,7-.5,7.6,1.4s-1.9,4.3-5.5,5.4-7,.5-7.5-1.4c-.6-1.9,1.9-4.3,5.5-5.4h0Z"/>
            <path class="cls-15" d="M287.9,124.7c3.3,1.7,5.3,4.6,4.4,6.3-.9,1.7-4.3,1.7-7.7,0-3.3-1.7-5.3-4.6-4.4-6.3.9-1.7,4.3-1.7,7.7,0Z"/>
            <path class="cls-10" d="M181.2,125.7c19.2-2.7,37,10.6,39.7,29.8,2.7,19.2-10.6,37-29.8,39.7s-37-10.6-39.7-29.8c-2.7-19.2,10.6-37,29.8-39.7h0Z"/>
            <path class="cls-10" d="M305.1,135.7c19.2-2.7,37,10.6,39.7,29.8,2.7,19.2-10.6,37-29.8,39.7-19.2,2.7-37-10.6-39.7-29.8-2.7-19.2,10.6-37,29.8-39.7Z"/>
            <g>
              <path class="cls-19" d="M181.3,174.9c-6.3,2.7-13.7-.2-16.4-6.6-2.7-6.3.2-13.7,6.6-16.4,6.3-2.7,13.7.2,16.4,6.6,2.7,6.3-.2,13.7-6.6,16.4Z"/>
              <path class="cls-13" d="M180.9,169.6c-1.8.8-3.8,0-4.6-1.8-.8-1.8,0-3.8,1.8-4.6,1.8-.8,3.8,0,4.6,1.8.8,1.8,0,3.8-1.8,4.6Z"/>
              <path class="cls-1" d="M181.2,125.7c19.2-2.7,37,10.6,39.7,29.8,2.7,19.2-10.6,37-29.8,39.7s-37-10.6-39.7-29.8c-2.7-19.2,10.6-37,29.8-39.7h0Z"/>
              <g class="cls-23">
                <path class="cls-17" d="M154.2,186.3s11.4-37.6,64.2-42.1c6.5-39.2-12.7-27-38-22.9-25.3,4.1-45.4,42.1-26.2,65Z"/>
              </g>
              <path class="cls-2" d="M181.2,125.7c19.2-2.7,37,10.6,39.7,29.8,2.7,19.2-10.6,37-29.8,39.7s-37-10.6-39.7-29.8c-2.7-19.2,10.6-37,29.8-39.7h0Z"/>
            </g>
            <g>
              <path class="cls-19" d="M315.3,184.9c6.3,2.7,13.7-.2,16.4-6.6,2.7-6.3-.2-13.7-6.6-16.4-6.3-2.7-13.7.2-16.4,6.6-2.7,6.3.2,13.7,6.6,16.4Z"/>
              <path class="cls-13" d="M315.6,179.6c1.8.8,3.8,0,4.6-1.8.8-1.8,0-3.8-1.8-4.6-1.8-.8-3.8,0-4.6,1.8-.8,1.8,0,3.8,1.8,4.6Z"/>
              <path class="cls-1" d="M315.3,135.7c-19.2-2.7-37,10.6-39.7,29.8s10.6,37,29.8,39.7c19.2,2.7,37-10.6,39.7-29.8,2.7-19.2-10.6-37-29.8-39.7Z"/>
              <g class="cls-25">
                <path class="cls-17" d="M342.3,196.3s-11.4-37.6-64.2-42.1c-6.5-39.2,12.7-27,38-22.9,25.3,4.1,45.4,42.1,26.2,65Z"/>
              </g>
              <path class="cls-2" d="M315.3,135.7c-19.2-2.7-37,10.6-39.7,29.8s10.6,37,29.8,39.7c19.2,2.7,37-10.6,39.7-29.8,2.7-19.2-10.6-37-29.8-39.7Z"/>
            </g>
          </g>
          <path class="cls-9" d="M278.4,322.8s30.6-2.9,39.1-19.4c8.5-16.5-3.7-26.9-14.5-17.7s-21.7,17-32.9,15.5c-11.3-1.5-11,23.7,8.3,21.7Z"/>
        </g>
        <path class="cls-7" d="M348.4,148.4s-3.3,31.2,7.5,55.5c10.7,24.2,26.6,49.4,26.1,75.5-.5,26.1-2.8,34-2.3,44.7"/>
        <path class="cls-7" d="M356.2,149.3s.6,31.4,14.3,54.1c13.7,22.7,32.5,45.7,35.3,71.7"/>
        <path class="cls-21" d="M172.5,126.8s-26.1-5.6-27.5-41.5c-1.4-35.9,40.5-75.5,97.9-76.9,77.4-1.9,136.6,20,149.6,90.9,9.8,53.5-21,64.3-29.4,64.3s-21.9-29.8-59.2-40.6c-37.3-10.7-78.8-15.4-131.5,3.7Z"/>
        <g class="cls-24">
          <g>
            <path class="cls-12" d="M139.8,78.7s33.6-28.7,92.5-26.8,125.7,31.7,167.1,67.9c41.4,36.2,11.9-102.2-79.4-115.6-91.4-13.4-161.5.4-173.4,31.3-11.9,31-6.7,43.3-6.7,43.3h0Z"/>
            <path class="cls-14" d="M143.1,109s59.7-41,126.3-27.5c66.7,13.5,98.8,46.6,118.4,70.4,19.6,23.8,22.2-26.8,16.2-35.1-11.1-15.6-52.8-53-102.5-64.1-70.9-15.8-99.8-16.3-173.9,22.4-74.1,38.7,15.4,34,15.4,34h0Z"/>
          </g>
        </g>
        <path class="cls-2" d="M172.5,126.8s-26.1-5.6-27.5-41.5c-1.4-35.9,40.5-75.5,97.9-76.9,77.4-1.9,136.6,20,149.6,90.9,9.8,53.5-21,64.3-29.4,64.3s-21.9-29.8-59.2-40.6c-37.3-10.7-78.8-15.4-131.5,3.7Z"/>
        <path class="cls-7" d="M354.4,170.7s-23.5,32-1.6,69.9c21.9,37.9,15.6,46.4,13.1,55.4"/>
        <path class="cls-3" d="M301.2,224.2l26.5,5.2"/>
        <path class="cls-4" d="M300.7,242.1l26.9,1.5"/>
        <path class="cls-6" d="M301.6,259l27-1.1"/>
        <path class="cls-11" d="M52.2,279.2c12.1,3.2,61.2,13.1,78.7,22.6,17.5,9.5,10.2-16.8-15.3-29.9-25.5-13.1-48.3-13-57.5-11.7-11.3,1.6-13.1,17-5.8,18.9Z"/>
        <path class="cls-2" d="M61,281.3l24.1-19.9,15.8,5-3.7,22.8,14.9,4.7,16.8-9.8"/>
        <path class="cls-18" d="M37.3,266.2s.8-12.1-15.2-22.7c-16-10.7-13.8-35.7,10.4-42.1,24.1-6.5,11.2-33.1,2-36.2,22.5,3.4,27.8,9.3,30,19.7s.3,26.8-23.3,34.3c-18,5.7,13.8,17.7-3.9,47.2Z"/>
        <path class="cls-18" d="M44.5,234.5s-2-9.4,9.4-19.6c11.4-10.2,6.9-29.6-12.8-32s-12.5-24.8-5.6-28.3c-17.3,5.1-20.8,10.4-21.5,18.8-.6,8.4,2.7,21.1,22.1,24.4,14.8,2.5-8.9,15.4,8.3,36.7h0Z"/>
        <path class="cls-18" d="M33.2,127.6s1.3,6.3-6.3,13c-7.6,6.8-4.6,19.7,8.5,21.3,13.1,1.6,8.3,16.5,3.7,18.8,11.5-3.4,13.9-6.9,14.3-12.5.4-5.6-1.8-14.1-14.7-16.2-9.8-1.6,5.9-10.3-5.5-24.4h0Z"/>
        <g>
          <path class="cls-8" d="M213,328.1c-15,5.9-38.1,9.5-70.3.8,29-15.5,50.2-20.3,65.5-20.5-9.1-6.4-19.7-16.7-31.3-33.4,19.7,4.2,32.9,11.5,41.8,19-3.6-10.6-5.9-25.4-5.1-46.1,14,16.2,20.1,30.8,22.4,42.5,2.4-6.2,6.1-13.5,11.7-21.9,2.2,13.4,1.1,23.7-1.3,31.5,3.9-4.2,9.7-8.8,18.5-13.7-6.8,21-19.3,26.7-24.2,28.2,5.5,0,18.6,2.2,31.1,19.4-9.8-1.9-16.8-4.5-21.8-7.3,4.6,6.6,8.9,16.1,10.9,29.5-7.9-6.3-13.6-12-17.8-17.2,1.4,11.8.1,27.6-8.2,47.3-7.1-19.5-9.4-34.3-9.3-45.5-6.2,9.8-16.5,20.9-34,30.9,6.5-21.3,14.1-34.9,21.5-43.8h0Z"/>
          <path class="cls-2" d="M240.6,314.6s15.4-3.7,21.8-2.4"/>
        </g>
      </g>
    </g>
  </g>
</svg>